<svg xmlns="http://www.w3.org/2000/svg" width="15.588" height="15.6" viewBox="0 0 15.588 15.6"><g transform="translate(-0.023)"><path d="M44.868,10.461l-.182-.224-2.77,2.769.121.178a3.9,3.9,0,0,1,0,4.383l-.121.178,2.769,2.769.182-.224a7.8,7.8,0,0,0,0-9.83Zm-.226,9.274-2.057-2.057a4.42,4.42,0,0,0,0-4.6l2.057-2.057a7.276,7.276,0,0,1,0,8.718Z" transform="translate(-31.002 -7.575)" fill="#dcc69d"/><path d="M10,34.706a3.9,3.9,0,0,1-6.021-2.494L3.942,32H.023l.029.287a7.8,7.8,0,0,0,12.673,5.249l.224-.182-2.769-2.77ZM7.811,38.76A7.255,7.255,0,0,1,.6,32.52H3.517a4.419,4.419,0,0,0,6.6,2.733L12.17,37.31A7.3,7.3,0,0,1,7.811,38.76Z" transform="translate(0 -23.68)" fill="#dcc69d"/><path d="M3.982,7.069A3.9,3.9,0,0,1,10,4.574l.178.121,2.769-2.77-.224-.182A7.8,7.8,0,0,0,.052,6.993L.023,7.28H3.942ZM2.351,6.76a.26.26,0,1,0-.52,0H.791a.259.259,0,0,0-.148-.232,7.259,7.259,0,0,1,.592-1.863.254.254,0,0,0,.076.015.26.26,0,0,0,.26-.26.255.255,0,0,0-.1-.2q.169-.3.366-.582s0,0,0,.006A.269.269,0,1,0,2,3.4a7.263,7.263,0,0,1,1.4-1.4.258.258,0,1,0,.243-.174h0q.282-.2.582-.365a.255.255,0,0,0,.2.1.25.25,0,0,0,.245-.336A7.264,7.264,0,0,1,6.538.631.255.255,0,0,0,7.022.564,7.392,7.392,0,0,1,7.811.52c.088,0,.175.008.262.011a.256.256,0,0,0,.509.036,7.293,7.293,0,0,1,1.981.5.259.259,0,1,0,.368.235.253.253,0,0,0-.016-.077,7.246,7.246,0,0,1,1.255.747L10.113,4.027c-.074-.045-.149-.087-.225-.128h0a.26.26,0,1,0-.26-.26.255.255,0,0,0,.062.163,4.377,4.377,0,0,0-1.214-.371.243.243,0,0,0-.251-.03c-.138-.013-.277-.022-.417-.022a4.395,4.395,0,0,0-.85.086.254.254,0,0,0-.437.11A4.419,4.419,0,0,0,3.588,6.513a.256.256,0,0,0-.2.247Z" transform="translate(0)" fill="#dcc69d"/><circle cx="0.26" cy="0.26" r="0.26" transform="translate(5.731 1.04)" fill="#dcc69d"/><circle cx="0.26" cy="0.26" r="0.26" transform="translate(7.291 1.04)" fill="#dcc69d"/><circle cx="0.26" cy="0.26" r="0.26" transform="translate(8.851 1.04)" fill="#dcc69d"/><circle cx="0.26" cy="0.26" r="0.26" transform="translate(5.731 2.6)" fill="#dcc69d"/><circle cx="0.26" cy="0.26" r="0.26" transform="translate(6.511 1.82)" fill="#dcc69d"/><circle cx="0.26" cy="0.26" r="0.26" transform="translate(7.291 2.6)" fill="#dcc69d"/><circle cx="0.26" cy="0.26" r="0.26" transform="translate(4.171 2.6)" fill="#dcc69d"/><circle cx="0.26" cy="0.26" r="0.26" transform="translate(4.951 1.82)" fill="#dcc69d"/><circle cx="0.26" cy="0.26" r="0.26" transform="translate(4.951 3.38)" fill="#dcc69d"/><circle cx="0.26" cy="0.26" r="0.26" transform="translate(2.611 2.6)" fill="#dcc69d"/><circle cx="0.26" cy="0.26" r="0.26" transform="translate(3.391 3.38)" fill="#dcc69d"/><circle cx="0.26" cy="0.26" r="0.26" transform="translate(8.071 1.82)" fill="#dcc69d"/><circle cx="0.26" cy="0.26" r="0.26" transform="translate(8.851 2.6)" fill="#dcc69d"/><circle cx="0.26" cy="0.26" r="0.26" transform="translate(10.411 2.6)" fill="#dcc69d"/><circle cx="0.26" cy="0.26" r="0.26" transform="translate(4.171 4.16)" fill="#dcc69d"/><circle cx="0.26" cy="0.26" r="0.26" transform="translate(2.611 4.16)" fill="#dcc69d"/><circle cx="0.26" cy="0.26" r="0.26" transform="translate(9.631 1.82)" fill="#dcc69d"/><circle cx="0.26" cy="0.26" r="0.26" transform="translate(11.191 1.82)" fill="#dcc69d"/><circle cx="0.26" cy="0.26" r="0.26" transform="translate(1.051 5.72)" fill="#dcc69d"/><circle cx="0.26" cy="0.26" r="0.26" transform="translate(2.611 5.72)" fill="#dcc69d"/><circle cx="0.26" cy="0.26" r="0.26" transform="translate(1.831 4.94)" fill="#dcc69d"/><circle cx="0.26" cy="0.26" r="0.26" transform="translate(3.391 4.94)" fill="#dcc69d"/></g></svg>