<svg xmlns="http://www.w3.org/2000/svg" width="20" height="20" viewBox="0 0 20 20"><g transform="translate(-2 -2)"><path d="M16,13.25a.75.75,0,0,0,0-1.5H13.25v-6H16a.75.75,0,0,0,0-1.5H9a.75.75,0,0,0,0,1.5h2.75V18a2.748,2.748,0,0,0,2.75,2.75H16a.75.75,0,0,0,0-1.5H14.5A1.25,1.25,0,0,1,13.25,18V13.25Z" fill="#dcc69d"/><path d="M7,8H4A2.006,2.006,0,0,1,2,6V4A2.006,2.006,0,0,1,4,2H7A2.006,2.006,0,0,1,9,4V6A2.006,2.006,0,0,1,7,8Z" fill="#0c273c"/><path d="M20.8,7H17.2A1.2,1.2,0,0,1,16,5.8V4.2A1.2,1.2,0,0,1,17.2,3h3.6A1.2,1.2,0,0,1,22,4.2V5.8A1.2,1.2,0,0,1,20.8,7Z" fill="#0c273c"/><path d="M20.8,14.5H17.2A1.2,1.2,0,0,1,16,13.3V11.7a1.2,1.2,0,0,1,1.2-1.2h3.6A1.2,1.2,0,0,1,22,11.7v1.6A1.2,1.2,0,0,1,20.8,14.5Z" fill="#0c273c"/><path d="M20.8,22H17.2A1.2,1.2,0,0,1,16,20.8V19.2A1.2,1.2,0,0,1,17.2,18h3.6A1.2,1.2,0,0,1,22,19.2v1.6A1.2,1.2,0,0,1,20.8,22Z" fill="#0c273c"/></g></svg>