<svg xmlns="http://www.w3.org/2000/svg" width="288.102" height="275.7" viewBox="0 0 288.102 275.7"><g transform="translate(-5.9 -12.1)"><path d="M264.1,136.8a30.031,30.031,0,0,0-25.6,14.3l-30.4-8a40.979,40.979,0,0,0,.2-5,52.79,52.79,0,0,0-9.9-30.7l38.9-38.9a29.642,29.642,0,0,0,14.2,3.6,30,30,0,1,0-30-30,29.642,29.642,0,0,0,3.6,14.2L186.2,95.2a52.644,52.644,0,0,0-70.8,8.6L65,73.3a30.811,30.811,0,0,0,.9-7.5A29.965,29.965,0,1,0,56.1,88l50.6,30.5a52.8,52.8,0,0,0,6.2,50.2L50.2,231.4A29.642,29.642,0,0,0,36,227.8a30,30,0,1,0,30,30,29.642,29.642,0,0,0-3.6-14.2L125,181a53.239,53.239,0,0,0,26.5,9.7l2.6,30.7a29.943,29.943,0,1,0,17.1-1.5l-2.6-30.6a53,53,0,0,0,35-29.4l30.4,8a30.01,30.01,0,1,0,30.1-31.1ZM35.9,78.6A12.7,12.7,0,1,1,48.6,65.9,12.718,12.718,0,0,1,35.9,78.6ZM251.7,29.4A12.7,12.7,0,1,1,239,42.1,12.718,12.718,0,0,1,251.7,29.4ZM35.9,270.6a12.7,12.7,0,1,1,12.7-12.7A12.718,12.718,0,0,1,35.9,270.6ZM178,249.3a12.7,12.7,0,1,1-12.7-12.7A12.718,12.718,0,0,1,178,249.3Zm-22.3-75.7a35.5,35.5,0,1,1,35.5-35.5A35.508,35.508,0,0,1,155.7,173.6Zm108.4,6a12.7,12.7,0,1,1,12.7-12.7A12.718,12.718,0,0,1,264.1,179.6Z" fill="#0c273c"/></g></svg>