<svg width="148" height="162" viewBox="0 0 148 162" fill="none" xmlns="http://www.w3.org/2000/svg">
<g id="Group 2">
<g id="Group 3">
<path id="Polygon 1" d="M1.46776 13L14.4999 0.687852L27.532 13H1.46776Z" stroke="url(#paint0_linear_29_215)"/>
<g id="Vector" filter="url(#filter0_bd_29_215)">
<path d="M103.6 88L29.6 14H0V73.2H59.2V162H148V88H103.6Z" fill="white" fill-opacity="0.21" shape-rendering="crispEdges"/>
<path d="M103.246 88.3536L103.393 88.5H103.6H147.5V161.5H59.7V73.2V72.7H59.2H0.5V14.5H29.3929L103.246 88.3536Z" stroke="url(#paint1_linear_29_215)" stroke-opacity="0.59" shape-rendering="crispEdges"/>
</g>
<path id="Line 2" d="M59 126.5H147" stroke="url(#paint2_linear_29_215)"/>
<path id="English" d="M73.2912 118V104.909H81.8054V106.897H75.6626V110.451H81.3643V112.439H75.6626V116.012H81.8565V118H73.2912ZM86.4364 112.247V118H84.1225V108.182H86.3342V109.85H86.4492C86.6751 109.3 87.0352 108.864 87.5295 108.54C88.0281 108.216 88.6438 108.054 89.3768 108.054C90.0543 108.054 90.6445 108.199 91.1474 108.489C91.6545 108.778 92.0465 109.198 92.3235 109.748C92.6048 110.298 92.7433 110.964 92.739 111.749V118H90.4251V112.107C90.4251 111.45 90.2546 110.937 89.9137 110.566C89.5771 110.195 89.1104 110.01 88.5138 110.01C88.109 110.01 87.7489 110.099 87.4336 110.278C87.1225 110.453 86.8775 110.707 86.6985 111.039C86.5238 111.371 86.4364 111.774 86.4364 112.247ZM99.3612 121.886C98.5302 121.886 97.8164 121.773 97.2198 121.548C96.6232 121.326 96.1438 121.028 95.7816 120.653C95.4194 120.278 95.168 119.862 95.0273 119.406L97.1112 118.901C97.2049 119.093 97.3413 119.283 97.5202 119.47C97.6992 119.662 97.94 119.82 98.2425 119.943C98.5494 120.071 98.935 120.135 99.3995 120.135C100.056 120.135 100.599 119.975 101.029 119.656C101.46 119.34 101.675 118.82 101.675 118.096V116.236H101.56C101.441 116.474 101.266 116.719 101.036 116.971C100.81 117.222 100.51 117.433 100.135 117.604C99.7638 117.774 99.2972 117.859 98.7347 117.859C97.9805 117.859 97.2965 117.683 96.6829 117.329C96.0735 116.971 95.5877 116.438 95.2255 115.731C94.8675 115.019 94.6886 114.129 94.6886 113.059C94.6886 111.981 94.8675 111.071 95.2255 110.33C95.5877 109.584 96.0756 109.019 96.6893 108.636C97.3029 108.248 97.9869 108.054 98.7411 108.054C99.3164 108.054 99.7894 108.152 100.16 108.348C100.535 108.54 100.833 108.772 101.055 109.045C101.277 109.313 101.445 109.567 101.56 109.805H101.688V108.182H103.97V118.16C103.97 118.999 103.77 119.694 103.369 120.244C102.968 120.793 102.421 121.205 101.726 121.477C101.032 121.75 100.243 121.886 99.3612 121.886ZM99.3803 116.044C99.8704 116.044 100.288 115.925 100.633 115.686C100.978 115.447 101.24 115.104 101.419 114.657C101.598 114.21 101.688 113.673 101.688 113.046C101.688 112.428 101.598 111.887 101.419 111.423C101.245 110.958 100.985 110.598 100.64 110.342C100.299 110.082 99.8789 109.952 99.3803 109.952C98.8647 109.952 98.4343 110.087 98.0891 110.355C97.744 110.624 97.484 110.992 97.3093 111.461C97.1346 111.925 97.0472 112.454 97.0472 113.046C97.0472 113.647 97.1346 114.173 97.3093 114.625C97.4883 115.072 97.7504 115.422 98.0955 115.673C98.445 115.92 98.8732 116.044 99.3803 116.044ZM108.655 104.909V118H106.341V104.909H108.655ZM111.035 118V108.182H113.349V118H111.035ZM112.198 106.788C111.831 106.788 111.516 106.667 111.252 106.424C110.988 106.177 110.856 105.881 110.856 105.536C110.856 105.186 110.988 104.89 111.252 104.647C111.516 104.4 111.831 104.276 112.198 104.276C112.569 104.276 112.884 104.4 113.144 104.647C113.408 104.89 113.54 105.186 113.54 105.536C113.54 105.881 113.408 106.177 113.144 106.424C112.884 106.667 112.569 106.788 112.198 106.788ZM123.488 110.777L121.379 111.007C121.319 110.794 121.214 110.594 121.065 110.406C120.92 110.219 120.724 110.067 120.477 109.952C120.23 109.837 119.928 109.78 119.57 109.78C119.088 109.78 118.683 109.884 118.355 110.093C118.031 110.302 117.871 110.572 117.876 110.905C117.871 111.19 117.976 111.423 118.189 111.602C118.406 111.781 118.764 111.928 119.263 112.043L120.938 112.401C121.866 112.601 122.557 112.918 123.009 113.353C123.464 113.788 123.695 114.357 123.699 115.06C123.695 115.678 123.513 116.223 123.156 116.696C122.802 117.165 122.31 117.531 121.679 117.795C121.048 118.06 120.324 118.192 119.506 118.192C118.304 118.192 117.337 117.94 116.604 117.438C115.871 116.93 115.434 116.225 115.293 115.322L117.55 115.104C117.652 115.548 117.869 115.882 118.202 116.108C118.534 116.334 118.967 116.447 119.499 116.447C120.049 116.447 120.49 116.334 120.822 116.108C121.159 115.882 121.327 115.603 121.327 115.271C121.327 114.989 121.219 114.757 121.001 114.574C120.788 114.391 120.456 114.25 120.004 114.152L118.33 113.8C117.388 113.604 116.691 113.274 116.239 112.81C115.788 112.341 115.564 111.749 115.568 111.033C115.564 110.428 115.728 109.903 116.06 109.46C116.397 109.013 116.864 108.668 117.46 108.425C118.061 108.178 118.754 108.054 119.538 108.054C120.688 108.054 121.594 108.299 122.254 108.789C122.919 109.279 123.33 109.942 123.488 110.777ZM127.921 112.247V118H125.607V104.909H127.87V109.85H127.985C128.215 109.296 128.571 108.859 129.052 108.54C129.538 108.216 130.156 108.054 130.906 108.054C131.588 108.054 132.182 108.197 132.689 108.482C133.196 108.768 133.588 109.185 133.865 109.735C134.147 110.285 134.287 110.956 134.287 111.749V118H131.973V112.107C131.973 111.446 131.803 110.933 131.462 110.566C131.125 110.195 130.652 110.01 130.043 110.01C129.634 110.01 129.267 110.099 128.944 110.278C128.624 110.453 128.373 110.707 128.189 111.039C128.01 111.371 127.921 111.774 127.921 112.247Z" fill="#011C2C"/>
<path id="&#216;&#167;&#217;&#132;&#216;&#185;&#216;&#177;&#216;&#168;&#217;&#138;&#216;&#169;" d="M91.896 147.08C91.1387 147.08 90.4827 146.984 89.928 146.792C89.384 146.589 88.9627 146.269 88.664 145.832C88.3653 145.384 88.1947 144.787 88.152 144.04L87.864 137.592H90.12L90.392 143.256C90.4133 143.693 90.4827 144.029 90.6 144.264C90.728 144.488 90.9093 144.643 91.144 144.728C91.3787 144.803 91.6827 144.84 92.056 144.84C92.4613 144.84 92.7493 144.947 92.92 145.16C93.0907 145.363 93.176 145.619 93.176 145.928C93.176 146.259 93.064 146.536 92.84 146.76C92.6267 146.973 92.312 147.08 91.896 147.08ZM88.968 145.592C88.2533 145.752 87.5653 145.827 86.904 145.816C86.2427 145.795 85.6507 145.677 85.128 145.464C84.6053 145.24 84.1893 144.92 83.88 144.504C83.5813 144.088 83.432 143.56 83.432 142.92C83.432 142.355 83.5547 141.843 83.8 141.384C84.056 140.915 84.408 140.504 84.856 140.152C85.3147 139.8 85.848 139.501 86.456 139.256C87.064 139.011 87.7253 138.824 88.44 138.696L88.664 140.968C88.2053 140.989 87.7893 141.053 87.416 141.16C87.0533 141.256 86.7387 141.384 86.472 141.544C86.216 141.704 86.0187 141.885 85.88 142.088C85.7413 142.28 85.672 142.488 85.672 142.712C85.672 142.893 85.736 143.043 85.864 143.16C85.992 143.277 86.1627 143.373 86.376 143.448C86.5893 143.512 86.8347 143.549 87.112 143.56C87.3893 143.571 87.672 143.555 87.96 143.512C88.2587 143.469 88.552 143.4 88.84 143.304L88.968 145.592ZM89.016 135.944C88.7067 135.944 88.44 135.837 88.216 135.624C88.0027 135.4 87.896 135.139 87.896 134.84C87.896 134.531 88.0027 134.264 88.216 134.04C88.44 133.816 88.7067 133.704 89.016 133.704C89.3147 133.704 89.5707 133.816 89.784 134.04C89.9973 134.264 90.104 134.531 90.104 134.84C90.104 135.139 89.9973 135.4 89.784 135.624C89.5707 135.837 89.3147 135.944 89.016 135.944ZM86.248 135.928C85.9387 135.928 85.672 135.821 85.448 135.608C85.2347 135.384 85.128 135.123 85.128 134.824C85.128 134.515 85.2347 134.248 85.448 134.024C85.672 133.8 85.9387 133.688 86.248 133.688C86.5467 133.688 86.8027 133.8 87.016 134.024C87.2293 134.248 87.336 134.515 87.336 134.824C87.336 135.123 87.2293 135.384 87.016 135.608C86.8027 135.821 86.5467 135.928 86.248 135.928ZM91.8906 147.08L92.0506 144.84C92.4346 144.84 92.7653 144.803 93.0426 144.728C93.32 144.653 93.5546 144.504 93.7466 144.28C93.9386 144.045 94.0986 143.704 94.2266 143.256C94.3653 142.808 94.488 142.211 94.5946 141.464L96.6906 141.816C96.6693 141.976 96.6373 142.163 96.5946 142.376C96.5626 142.589 96.5306 142.808 96.4986 143.032C96.4773 143.245 96.4666 143.448 96.4666 143.64C96.4666 143.832 96.504 144.003 96.5786 144.152C96.6533 144.301 96.7706 144.429 96.9306 144.536C97.1013 144.632 97.32 144.707 97.5866 144.76C97.864 144.813 98.2 144.84 98.5946 144.84C99 144.84 99.288 144.947 99.4586 145.16C99.6293 145.363 99.7146 145.619 99.7146 145.928C99.7146 146.259 99.6026 146.536 99.3786 146.76C99.1653 146.973 98.8506 147.08 98.4346 147.08C97.9546 147.08 97.5173 147.043 97.1226 146.968C96.7386 146.893 96.4026 146.771 96.1146 146.6C95.8373 146.419 95.608 146.184 95.4266 145.896C95.256 145.597 95.1493 145.235 95.1066 144.808H95.8746C95.6826 145.32 95.4373 145.731 95.1386 146.04C94.8506 146.339 94.5253 146.563 94.1626 146.712C93.8 146.861 93.4213 146.957 93.0266 147C92.6426 147.053 92.264 147.08 91.8906 147.08ZM96.3546 150.792C96.0453 150.792 95.7786 150.68 95.5546 150.456C95.3413 150.243 95.2346 149.987 95.2346 149.688C95.2346 149.379 95.3413 149.112 95.5546 148.888C95.7786 148.664 96.0453 148.552 96.3546 148.552C96.6533 148.552 96.9093 148.664 97.1226 148.888C97.336 149.112 97.4426 149.379 97.4426 149.688C97.4426 149.987 97.336 150.243 97.1226 150.456C96.9093 150.68 96.6533 150.792 96.3546 150.792ZM93.5866 150.792C93.2773 150.792 93.0106 150.68 92.7866 150.456C92.5733 150.243 92.4666 149.987 92.4666 149.688C92.4666 149.379 92.5733 149.112 92.7866 148.888C93.0106 148.664 93.2773 148.552 93.5866 148.552C93.8853 148.552 94.1413 148.664 94.3546 148.888C94.568 149.112 94.6746 149.379 94.6746 149.688C94.6746 149.987 94.568 150.243 94.3546 150.456C94.1413 150.68 93.8853 150.792 93.5866 150.792ZM98.4375 147.08L98.5975 144.84C99.0668 144.84 99.4348 144.808 99.7015 144.744C99.9788 144.68 100.176 144.563 100.294 144.392C100.411 144.211 100.47 143.955 100.47 143.624C100.47 143.325 100.427 142.968 100.342 142.552C100.267 142.136 100.166 141.704 100.038 141.256C99.9095 140.808 99.7815 140.397 99.6535 140.024L101.862 139.416C101.99 139.779 102.118 140.2 102.246 140.68C102.374 141.16 102.48 141.656 102.566 142.168C102.662 142.669 102.71 143.155 102.71 143.624C102.71 144.211 102.635 144.707 102.486 145.112C102.336 145.507 102.128 145.837 101.862 146.104C101.606 146.36 101.296 146.563 100.934 146.712C100.582 146.851 100.192 146.947 99.7655 147C99.3388 147.053 98.8962 147.08 98.4375 147.08ZM100.406 150.76C100.096 150.76 99.8295 150.653 99.6055 150.44C99.3922 150.227 99.2855 149.965 99.2855 149.656C99.2855 149.347 99.3922 149.075 99.6055 148.84C99.8295 148.616 100.096 148.504 100.406 148.504C100.715 148.504 100.976 148.616 101.19 148.84C101.414 149.075 101.526 149.347 101.526 149.656C101.526 149.965 101.414 150.227 101.19 150.44C100.976 150.653 100.715 150.76 100.406 150.76ZM103.772 150.696L102.956 148.712C103.521 148.52 104.038 148.296 104.508 148.04C104.988 147.784 105.404 147.501 105.756 147.192C106.108 146.883 106.38 146.547 106.572 146.184C106.764 145.811 106.86 145.411 106.86 144.984C106.86 144.536 106.758 144.045 106.556 143.512C106.353 142.979 106.108 142.435 105.82 141.88L107.916 140.872C108.108 141.203 108.273 141.56 108.412 141.944C108.561 142.317 108.684 142.653 108.78 142.952C108.876 143.251 108.94 143.453 108.972 143.56C109.121 144.072 109.324 144.413 109.58 144.584C109.846 144.755 110.273 144.84 110.86 144.84C111.265 144.84 111.553 144.947 111.724 145.16C111.905 145.363 111.996 145.619 111.996 145.928C111.996 146.259 111.884 146.536 111.66 146.76C111.436 146.973 111.116 147.08 110.7 147.08C110.262 147.08 109.878 147.016 109.548 146.888C109.217 146.76 108.95 146.573 108.748 146.328C108.556 146.083 108.433 145.795 108.38 145.464L108.972 145.8C108.908 146.365 108.721 146.899 108.412 147.4C108.113 147.912 107.724 148.381 107.244 148.808C106.764 149.235 106.225 149.608 105.628 149.928C105.03 150.248 104.412 150.504 103.772 150.696ZM110.655 147.08L110.815 144.84C111.561 144.84 112.233 144.792 112.831 144.696C113.428 144.589 113.951 144.451 114.399 144.28C114.857 144.109 115.236 143.912 115.535 143.688C115.844 143.464 116.073 143.229 116.223 142.984C116.383 142.728 116.463 142.477 116.463 142.232C116.463 142.093 116.425 141.965 116.351 141.848C116.287 141.72 116.175 141.619 116.015 141.544C115.855 141.459 115.636 141.416 115.359 141.416C115.22 141.416 115.055 141.432 114.863 141.464C114.671 141.496 114.479 141.544 114.287 141.608C114.095 141.661 113.913 141.736 113.743 141.832C113.967 142.003 114.212 142.221 114.479 142.488C114.745 142.744 115.012 143.016 115.279 143.304C115.545 143.581 115.775 143.853 115.967 144.12C116.191 144.216 116.436 144.312 116.703 144.408C116.98 144.493 117.279 144.568 117.599 144.632C117.919 144.696 118.255 144.749 118.607 144.792C118.959 144.824 119.321 144.84 119.695 144.84C120.1 144.84 120.388 144.947 120.559 145.16C120.74 145.363 120.831 145.619 120.831 145.928C120.831 146.259 120.719 146.536 120.495 146.76C120.271 146.973 119.951 147.08 119.535 147.08C118.681 147.08 117.924 147.016 117.263 146.888C116.601 146.749 116.009 146.552 115.487 146.296C114.975 146.029 114.495 145.709 114.047 145.336C113.919 145.112 113.737 144.872 113.503 144.616C113.279 144.349 113.039 144.093 112.783 143.848C112.537 143.603 112.313 143.4 112.111 143.24C112.057 143.197 111.993 143.085 111.919 142.904C111.855 142.712 111.796 142.515 111.743 142.312C111.689 142.099 111.663 141.949 111.663 141.864C111.663 141.619 111.775 141.357 111.999 141.08C112.233 140.803 112.543 140.547 112.927 140.312C113.321 140.067 113.753 139.869 114.223 139.72C114.703 139.56 115.188 139.48 115.679 139.48C116.34 139.48 116.889 139.581 117.327 139.784C117.775 139.976 118.111 140.248 118.335 140.6C118.559 140.941 118.671 141.341 118.671 141.8C118.671 142.312 118.559 142.824 118.335 143.336C118.111 143.837 117.78 144.312 117.343 144.76C116.916 145.208 116.377 145.608 115.727 145.96C115.087 146.301 114.34 146.573 113.487 146.776C112.644 146.979 111.7 147.08 110.655 147.08ZM119.547 147.08L119.707 144.84C120.198 144.84 120.55 144.792 120.763 144.696C120.976 144.589 121.104 144.397 121.147 144.12C121.19 143.832 121.2 143.416 121.179 142.872L120.891 135.288H123.147L123.467 143.032C123.488 143.651 123.462 144.211 123.387 144.712C123.323 145.203 123.158 145.624 122.891 145.976C122.635 146.328 122.235 146.6 121.691 146.792C121.158 146.984 120.443 147.08 119.547 147.08ZM125.577 147L125.241 135.288H127.481L127.817 147H125.577Z" fill="#011C2C"/>
</g>
</g>
<defs>
<filter id="filter0_bd_29_215" x="-120" y="-106" width="388" height="388" filterUnits="userSpaceOnUse" color-interpolation-filters="sRGB">
<feFlood flood-opacity="0" result="BackgroundImageFix"/>
<feGaussianBlur in="BackgroundImageFix" stdDeviation="60"/>
<feComposite in2="SourceAlpha" operator="in" result="effect1_backgroundBlur_29_215"/>
<feColorMatrix in="SourceAlpha" type="matrix" values="0 0 0 0 0 0 0 0 0 0 0 0 0 0 0 0 0 0 127 0" result="hardAlpha"/>
<feOffset/>
<feGaussianBlur stdDeviation="8.5"/>
<feComposite in2="hardAlpha" operator="out"/>
<feColorMatrix type="matrix" values="0 0 0 0 0 0 0 0 0 0 0 0 0 0 0 0 0 0 0.33 0"/>
<feBlend mode="normal" in2="effect1_backgroundBlur_29_215" result="effect2_dropShadow_29_215"/>
<feBlend mode="normal" in="SourceGraphic" in2="effect2_dropShadow_29_215" result="shape"/>
</filter>
<linearGradient id="paint0_linear_29_215" x1="14.4999" y1="0" x2="14.4999" y2="13.5" gradientUnits="userSpaceOnUse">
<stop stop-color="white"/>
<stop offset="0.897494" stop-color="white" stop-opacity="0"/>
</linearGradient>
<linearGradient id="paint1_linear_29_215" x1="74" y1="14" x2="74" y2="162" gradientUnits="userSpaceOnUse">
<stop stop-color="white"/>
<stop offset="0.689545" stop-color="#00263E"/>
</linearGradient>
<linearGradient id="paint2_linear_29_215" x1="58" y1="127.5" x2="145" y2="127.5" gradientUnits="userSpaceOnUse">
<stop stop-color="white" stop-opacity="0.2"/>
<stop offset="0.5" stop-color="white"/>
<stop offset="1" stop-color="white" stop-opacity="0.2"/>
</linearGradient>
</defs>
</svg>
