<?xml version="1.0" standalone="no"?><svg xmlns="http://www.w3.org/2000/svg" viewBox="0 0 1440 320"><path fill="#0099ff" fill-opacity="1" d="M0,96L40,128C80,160,160,224,240,256C320,288,400,288,480,266.7C560,245,640,203,720,202.7C800,203,880,245,960,250.7C1040,256,1120,224,1200,224C1280,224,1360,256,1400,272L1440,288L1440,320L1400,320C1360,320,1280,320,1200,320C1120,320,1040,320,960,320C880,320,800,320,720,320C640,320,560,320,480,320C400,320,320,320,240,320C160,320,80,320,40,320L0,320Z"></path></svg>