<svg xmlns="http://www.w3.org/2000/svg" width="19" height="21" viewBox="0 0 19 21"><g transform="translate(-2.5 -1.5)"><path d="M5.75,21A1.75,1.75,0,1,1,7.5,19.25,1.75,1.75,0,0,1,5.75,21ZM2.5,19.25A3.25,3.25,0,1,0,5.75,16,3.25,3.25,0,0,0,2.5,19.25ZM5.75,6.5A1.75,1.75,0,1,1,7.5,4.75,1.75,1.75,0,0,1,5.75,6.5ZM2.5,4.75A3.25,3.25,0,1,0,5.75,1.5,3.25,3.25,0,0,0,2.5,4.75ZM18.25,15A1.75,1.75,0,1,1,20,13.25,1.75,1.75,0,0,1,18.25,15ZM15,13.25A3.25,3.25,0,1,0,18.25,10,3.25,3.25,0,0,0,15,13.25Z" fill="#dcc69d" fill-rule="evenodd"/><path d="M6.5,7.25a5.249,5.249,0,0,0,5.25,5.25h4.5V14h-4.5A6.75,6.75,0,0,1,5,7.25Z" fill="#dcc69d" fill-rule="evenodd"/><path d="M5.75,16.75A.75.75,0,0,0,6.5,16V8A.75.75,0,0,0,5,8v8A.75.75,0,0,0,5.75,16.75Z" fill="#dcc69d" fill-rule="evenodd"/></g></svg>