<svg xmlns="http://www.w3.org/2000/svg" width="32" height="32" viewBox="0 0 32 32"><path d="M4,20v2H7.586L2,27.586,3.414,29,9,23.414V27h2V20Z" fill="#0c273c"/><rect width="7" height="2" transform="translate(19 10)" fill="#0c273c"/><rect width="7" height="2" transform="translate(19 15)" fill="#0c273c"/><rect width="7" height="2" transform="translate(19 20)" fill="#0c273c"/><path d="M28,5H4A2,2,0,0,0,2,7V17H4V7H15V27H28a2,2,0,0,0,2-2V7A2,2,0,0,0,28,5ZM17,25V7H28V25Z" fill="#0c273c"/><rect width="32" height="32" fill="none"/></svg>