<svg xmlns="http://www.w3.org/2000/svg" width="395.594" height="512" viewBox="0 0 395.594 512"><g transform="translate(-58.203)"><path d="M449.891,87.953A49.522,49.522,0,0,0,404.25,57.7H361.594V50.344H299.766a44.2,44.2,0,1,0-87.531,0H150.407V57.7H107.75A49.525,49.525,0,0,0,58.2,107.25V462.469A49.527,49.527,0,0,0,107.75,512h296.5A49.525,49.525,0,0,0,453.8,462.469V107.25A49.458,49.458,0,0,0,449.891,87.953ZM256,27.8A16.424,16.424,0,0,1,272.406,44.2a16.13,16.13,0,0,1-1.219,6.141H240.8A16.385,16.385,0,0,1,256,27.8ZM424.328,462.469a19.753,19.753,0,0,1-1.578,7.8,20.346,20.346,0,0,1-7.281,8.859,19.9,19.9,0,0,1-11.219,3.406H107.75a20.092,20.092,0,0,1-7.813-1.563,20.366,20.366,0,0,1-8.844-7.3,19.779,19.779,0,0,1-3.422-11.2V107.25a19.832,19.832,0,0,1,1.578-7.813,20.069,20.069,0,0,1,18.5-12.266H150.4v6.141A20.876,20.876,0,0,0,171.3,114.187H340.7a20.876,20.876,0,0,0,20.891-20.875V87.171h42.656a19.832,19.832,0,0,1,7.813,1.578,20.069,20.069,0,0,1,12.266,18.5Z" fill="#dcc69d"/><rect width="213.641" height="24.547" transform="translate(149.172 173.125)" fill="#dcc69d"/><rect width="213.641" height="24.547" transform="translate(149.172 240.656)" fill="#dcc69d"/><rect width="213.641" height="24.547" transform="translate(149.172 308.188)" fill="#dcc69d"/><rect width="106.813" height="24.563" transform="translate(256 394.125)" fill="#dcc69d"/></g></svg>