<svg xmlns="http://www.w3.org/2000/svg" width="19.499" height="11.501" viewBox="0 0 19.499 11.501"><g transform="translate(-2.25 -6.25)"><path d="M17.184,6.692a.75.75,0,0,0-1.368,0l-4.5,10a.75.75,0,0,0,1.368.616l1.437-3.194h4.757l1.437,3.194a.75.75,0,0,0,1.368-.616ZM16.5,8.828l-1.7,3.786h3.4Z" fill="#fff" fill-rule="evenodd"/><path d="M2.25,7A.75.75,0,0,1,3,6.25H13a.75.75,0,0,1,0,1.5H3A.75.75,0,0,1,2.25,7Z" fill="#fff" fill-rule="evenodd" opacity="0.5"/><path d="M2.25,12A.75.75,0,0,1,3,11.25h7a.75.75,0,0,1,0,1.5H3A.75.75,0,0,1,2.25,12Z" fill="#fff" opacity="0.5"/><path d="M2.25,17A.75.75,0,0,1,3,16.25H8a.75.75,0,0,1,0,1.5H3A.75.75,0,0,1,2.25,17Z" fill="#fff" opacity="0.5"/></g></svg>