<svg xmlns="http://www.w3.org/2000/svg" width="44" height="44" viewBox="0 0 44 44"><path d="M5,28.18V3A2,2,0,0,0,1,3V43a2,2,0,0,0,2,2H43a2,2,0,0,0,0-4H5Z" transform="translate(-1 -1)" fill="#dcc69d"/><g transform="translate(10.086 2.482)"><path d="M2,0H6.686a2,2,0,0,1,2,2V38.857H0V2A2,2,0,0,1,2,0Z" transform="translate(8.686)" fill="none" stroke="#dcc69d" stroke-width="3"/><path d="M2,0H6.686a2,2,0,0,1,2,2V28.541H0V2A2,2,0,0,1,2,0Z" transform="translate(17.373 10.317)" fill="none" stroke="#dcc69d" stroke-width="3"/><path d="M2,0H6.686a2,2,0,0,1,2,2V17.373H0V2A2,2,0,0,1,2,0Z" transform="translate(0 21.485)" fill="none" stroke="#dcc69d" stroke-width="3"/></g></svg>