<svg xmlns="http://www.w3.org/2000/svg" width="44" height="44" viewBox="0 0 44 44"><g transform="translate(-3.757 -16.7)"><path d="M4.636,25.709V2.818A1.818,1.818,0,0,0,1,2.818V43.182A1.818,1.818,0,0,0,2.818,45H8.182a1.818,1.818,0,1,0,0-3.636H4.636Z" transform="translate(2.757 15.7)" fill="#dcc69d"/><rect width="8" height="4" rx="2" transform="translate(15.757 56.7)" fill="#dcc69d"/><rect width="8" height="4" rx="2" transform="translate(27.757 56.7)" fill="#dcc69d"/><rect width="8" height="4" rx="2" transform="translate(39.757 56.7)" fill="#dcc69d"/><g transform="translate(37.757 26.7)" fill="none" stroke="#dcc69d" stroke-width="3"><circle cx="4" cy="4" r="4" stroke="none"/><circle cx="4" cy="4" r="2.5" fill="none"/></g><g transform="translate(19.757 26.7)" fill="none" stroke="#dcc69d" stroke-width="3"><circle cx="4" cy="4" r="4" stroke="none"/><circle cx="4" cy="4" r="2.5" fill="none"/></g><g transform="translate(29.757 40.7)" fill="none" stroke="#dcc69d" stroke-width="3"><circle cx="4" cy="4" r="4" stroke="none"/><circle cx="4" cy="4" r="2.5" fill="none"/></g><g transform="translate(10.757 40.7)" fill="none" stroke="#dcc69d" stroke-width="3"><circle cx="4" cy="4" r="4" stroke="none"/><circle cx="4" cy="4" r="2.5" fill="none"/></g><path d="M40.491,32.9,35.1,42.672" fill="none" stroke="#dcc69d" stroke-width="3"/><path d="M24.818,32.489,31.55,42.4" fill="none" stroke="#dcc69d" stroke-width="3"/><path d="M40.491,32.9l-5.713,9.591" transform="translate(-18.34)" fill="none" stroke="#dcc69d" stroke-width="3"/></g></svg>