<?xml version="1.0" encoding="UTF-8" standalone="no"?>
<svg
   version="1.1"
   width="512"
   height="147"
   style="clip-rule:evenodd;fill-rule:evenodd;image-rendering:optimizeQuality;shape-rendering:geometricPrecision;text-rendering:geometricPrecision"
   id="svg71"
   sodipodi:docname="20240729142317!وزارة_البلديات_والإسكان_السعودية.svg"
   inkscape:version="1.3.2 (091e20e, 2023-11-25, custom)"
   xmlns:inkscape="http://www.inkscape.org/namespaces/inkscape"
   xmlns:sodipodi="http://sodipodi.sourceforge.net/DTD/sodipodi-0.dtd"
   xmlns="http://www.w3.org/2000/svg"
   xmlns:svg="http://www.w3.org/2000/svg">
  <defs
     id="defs71" />
  <sodipodi:namedview
     id="namedview71"
     pagecolor="#ffffff"
     bordercolor="#000000"
     borderopacity="0.25"
     inkscape:showpageshadow="2"
     inkscape:pageopacity="0.0"
     inkscape:pagecheckerboard="0"
     inkscape:deskcolor="#d1d1d1"
     inkscape:zoom="2"
     inkscape:cx="423"
     inkscape:cy="138.75"
     inkscape:window-width="1920"
     inkscape:window-height="1009"
     inkscape:window-x="-8"
     inkscape:window-y="-8"
     inkscape:window-maximized="1"
     inkscape:current-layer="svg71" />
  <g
     id="g1"
     transform="matrix(0.05471147,0,0,0.05734659,-1.1215851,-3.8708948)">
    <path
       style="opacity:0.991"
       fill="#87b924"
       d="m 7976.5,67.5 c 5.25,0.3753 9.42,2.7086 12.5,7 11.18,19.2006 19.85,39.534 26,61 2.67,10.016 5.34,20.016 8,30 22.68,-17.741 48.51,-27.241 77.5,-28.5 13.39,-0.662 26.73,0.005 40,2 17.87,3.107 35.54,7.107 53,12 -14.75,6.807 -29.42,13.807 -44,21 -11.21,7.538 -21.54,16.205 -31,26 70.08,-3.065 135.74,12.602 197,47 47.35,26.651 89.52,60.151 126.5,100.5 31.79,35.018 60.13,72.352 85,112 -65.72,-54.116 -139.88,-92.949 -222.5,-116.5 -27.82,-7.903 -56.16,-12.403 -85,-13.5 -7.36,0.576 -14.69,1.409 -22,2.5 47.5,20.863 90.16,48.863 128,84 65.23,60.942 112.39,133.775 141.5,218.5 14.7,45.19 22.37,91.523 23,139 -56.14,-106.163 -131.97,-195.997 -227.5,-269.5 -23.9,-17.871 -50.07,-31.704 -78.5,-41.5 12.93,19.143 25.93,38.476 39,58 70.55,109.842 102.55,230.176 96,361 -0.92,22.711 -2.42,45.378 -4.5,68 -13.78,-57.854 -33.62,-113.52 -59.5,-167 -33.02,-70.562 -72.02,-137.229 -117,-200 -7.59,-10.257 -15.92,-19.923 -25,-29 32.32,155.532 32.66,311.199 1,467 -6.61,-78.62 -17.61,-156.62 -33,-234 -10.19,-53.104 -25.19,-104.771 -45,-155 -4.64,-10.612 -9.81,-20.946 -15.5,-31 -5.51,47.398 -11.51,94.731 -18,142 5.67,0 11.33,0 17,0 -3.52,65.643 -6.86,131.309 -10,197 4.67,0 9.33,0 14,0 -3.36,69.59 -7.36,139.09 -12,208.5 6.67,0.33 13.33,0.67 20,1 -7.13,71.06 -13.29,142.22 -18.5,213.5 15.56,9.78 30.23,20.78 44,33 3,3.67 6,7.33 9,11 0.5,4.65 0.67,9.32 0.5,14 -59.67,0 -119.33,0 -179,0 -0.17,-4.35 0,-8.68 0.5,-13 16.01,-18.03 34.34,-33.03 55,-45 -4.78,-66.53 -10.28,-133.03 -16.5,-199.5 0.17,-2.83 0.33,-5.67 0.5,-8.5 5.03,-1.88 10.19,-3.38 15.5,-4.5 0.63,-2.07 0.97,-4.24 1,-6.5 -5.44,-66 -10.78,-132 -16,-198 5,0 10,0 15,0 -2.94,-66.67 -5.94,-133.336 -9,-200 4.15,-0.131 8.15,-0.964 12,-2.5 -6.92,-46.776 -13.75,-93.609 -20.5,-140.5 -46.49,131.801 -73.49,267.468 -81,407 -19.23,-47.484 -30.56,-96.817 -34,-148 -8.1,-99.224 0.57,-196.89 26,-293 -72.28,76.817 -126.61,165.151 -163,265 -12.55,36.862 -23.21,74.195 -32,112 -3.8,-21.313 -7.46,-42.647 -11,-64 -5.28,-55.584 -0.28,-110.251 15,-164 25.47,-86.764 63.64,-167.264 114.5,-241.5 -27.94,12.138 -54.27,27.138 -79,45 -45.31,33.643 -85.81,72.477 -121.5,116.5 -36.38,46.413 -70.04,94.746 -101,145 11.48,-80.431 35.81,-156.764 73,-229 42.81,-80.478 103.64,-143.644 182.5,-189.5 15.09,-7.879 30.42,-15.212 46,-22 -32.3,-5.835 -64.63,-5.835 -97,0 -78.78,13.065 -147.78,45.898 -207,98.5 -3.87,-3.032 -7.2,-6.532 -10,-10.5 29.25,-42.275 61.92,-81.942 98,-119 62.05,-56.51 135.05,-90.177 219,-101 24.25,-3.104 48.58,-5.271 73,-6.5 -17.45,-22.401 -40.11,-36.734 -68,-43 32.21,-21.24 67.21,-27.407 105,-18.5 20.06,4.617 38.23,13.117 54.5,25.5 4.95,-25.194 13.29,-49.194 25,-72 4.69,-8.3583 10.52,-15.8583 17.5,-22.5 2.43,-1.2126 4.76,-2.3793 7,-3.5 z"
       id="path1" />
  </g>
  <g
     id="g3"
     transform="matrix(0.05471147,0,0,0.05734659,-1.1215851,-3.8708948)">
    <path
       style="opacity:0.981"
       fill="#026c67"
       d="m 2086.5,1091.5 c 21.67,0 43.33,0 65,0 0.17,126.33 0,252.67 -0.5,379 -1.11,32.07 -14.61,57.24 -40.5,75.5 -10.54,6.27 -21.87,10.27 -34,12 -79.98,1.47 -159.98,1.97 -240,1.5 0,-24.67 0,-49.33 0,-74 76.33,0.17 152.67,0 229,-0.5 10.21,-0.33 17.04,-5.17 20.5,-14.5 0.5,-126.33 0.67,-252.67 0.5,-379 z"
       id="path3" />
  </g>
  <g
     id="g4"
     transform="matrix(0.05471147,0,0,0.05734659,-1.1215851,-3.8708948)">
    <path
       style="opacity:0.988"
       fill="#026c67"
       d="m 4068.5,1092.5 c 21.33,0 42.67,0 64,0 -0.17,125.67 0,251.33 0.5,377 6.02,7.43 13.86,11.93 23.5,13.5 5.63,0.97 11.3,1.63 17,2 26.03,0.91 52.03,0.58 78,-1 12.02,-1.85 23.02,-6.18 33,-13 2.18,-1.5 3.51,-3.5 4,-6 -0.62,-3.48 -1.12,-6.98 -1.5,-10.5 -0.5,-38.33 -0.67,-76.67 -0.5,-115 21.67,0 43.33,0 65,0 -0.17,37.67 0,75.33 0.5,113 2.51,16.18 11.68,26.34 27.5,30.5 4.29,0.91 8.63,1.58 13,2 29.67,0.67 59.33,0.67 89,0 14.25,-0.75 21.58,-8.25 22,-22.5 1,-123.33 1.33,-246.66 1,-370 21.33,0 42.67,0 64,0 0.17,127 0,254 -0.5,381 -1.67,32.19 -15.83,57.02 -42.5,74.5 -12.48,6.83 -25.81,10.83 -40,12 -34.69,0.92 -69.35,0.59 -104,-1 -25.05,-3.44 -46.55,-13.94 -64.5,-31.5 -19.8,20.28 -43.96,31.11 -72.5,32.5 -22.33,0.67 -44.67,0.67 -67,0 -26.62,-1.96 -46.95,-14.13 -61,-36.5 -17.06,21.54 -39.4,33.7 -67,36.5 -21.33,0.67 -42.67,0.67 -64,0 -25.49,-1.65 -44.99,-13.15 -58.5,-34.5 -16.79,18.65 -37.62,29.81 -62.5,33.5 -51.31,1.46 -102.64,1.96 -154,1.5 0,-24.67 0,-49.33 0,-74 48.67,0.17 97.33,0 146,-0.5 23.89,-2.27 31.73,-14.77 23.5,-37.5 -5.67,-23.67 -11.33,-47.33 -17,-71 -4.52,-18.85 -16.35,-29.69 -35.5,-32.5 -27.66,-0.5 -55.33,-0.67 -83,-0.5 0,-24.67 0,-49.33 0,-74 30.7,-0.44 61.36,0.06 92,1.5 40.55,7.54 68.05,30.71 82.5,69.5 8.94,31.08 16.94,62.42 24,94 2.52,13.21 3.85,26.54 4,40 9.68,6.8 20.51,10.3 32.5,10.5 23,0.67 46,0.67 69,0 10.6,-0.95 17.1,-6.45 19.5,-16.5 0.5,-125.67 0.67,-251.33 0.5,-377 z"
       id="path4" />
  </g>
  <g
     id="g5"
     transform="matrix(0.05471147,0,0,0.05734659,-1.1215851,-3.8708948)">
    <path
       style="opacity:0.991"
       fill="#026c67"
       d="m 2242.5,1095.5 c 21.33,0 42.67,0 64,0 0,155 0,310 0,465 -21.33,0 -42.67,0 -64,0 0,-155 0,-310 0,-465 z"
       id="path5" />
  </g>
  <g
     id="g6"
     transform="matrix(0.05471147,0,0,0.05734659,-1.1215851,-3.8708948)">
    <path
       style="opacity:0.99"
       fill="#026c67"
       d="m 3404.5,1095.5 c 21.33,0 42.67,0 64,0 -0.17,122 0,244 0.5,366 -0.04,6.01 1.3,11.68 4,17 3.54,4.07 8.04,6.24 13.5,6.5 35.67,0.67 71.33,0.67 107,0 6.42,0.22 10.59,-2.61 12.5,-8.5 0.5,-64.67 0.67,-129.33 0.5,-194 21.33,0 42.67,0 64,0 0.17,67 0,134 -0.5,201 -2.19,30.25 -16.36,52.75 -42.5,67.5 -11.12,5.03 -22.79,7.7 -35,8 -38.36,0.94 -76.69,0.6 -115,-1 -38.01,-7.68 -61.18,-30.51 -69.5,-68.5 -1.54,-6.92 -2.54,-13.92 -3,-21 -0.5,-124.33 -0.67,-248.67 -0.5,-373 z"
       id="path6" />
  </g>
  <g
     id="g7"
     transform="matrix(0.05471147,0,0,0.05734659,-1.1215851,-3.8708948)">
    <path
       style="opacity:0.991"
       fill="#026c67"
       d="m 4655.5,1095.5 c 21.33,0 42.67,0 64,0 0,155 0,310 0,465 -21.33,0 -42.67,0 -64,0 0,-155 0,-310 0,-465 z"
       id="path7" />
  </g>
  <g
     id="g8"
     transform="matrix(0.05471147,0,0,0.05734659,-1.1215851,-3.8708948)">
    <path
       style="opacity:0.991"
       fill="#026c67"
       d="m 5419.5,1095.5 c 21.33,0 42.67,0 64,0 0,155 0,310 0,465 -21.33,0 -42.67,0 -64,0 0,-155 0,-310 0,-465 z"
       id="path8" />
  </g>
  <g
     id="g9"
     transform="matrix(0.05471147,0,0,0.05734659,-1.1215851,-3.8708948)">
    <path
       style="opacity:0.987"
       fill="#026c67"
       d="m 417.5,1096.5 c 21.333,0 42.667,0 64,0 -0.167,124.67 0,249.33 0.5,374 0.453,7.08 3.953,11.92 10.5,14.5 223.299,1.66 446.633,1.99 670,1 5.41,0.05 8.91,-2.45 10.5,-7.5 0.67,-13.67 0.67,-27.33 0,-41 -4.29,-45.95 -29.45,-70.79 -75.5,-74.5 -131.333,-0.5 -262.666,-0.67 -394,-0.5 -0.167,-29.67 0,-59.34 0.5,-89 2.268,-37.71 18.101,-68.21 47.5,-91.5 36.805,-25.31 73.471,-50.81 110,-76.5 10.793,18.08 21.459,36.25 32,54.5 -34.825,24.91 -69.825,49.58 -105,74 -21.634,15.12 -30.967,35.95 -28,62.5 110.667,-0.17 221.334,0 332,0.5 35.65,0.88 67.65,11.88 96,33 29.55,27.25 45.71,61.08 48.5,101.5 0.92,15.66 1.59,31.32 2,47 7.17,4.31 15,6.47 23.5,6.5 27.69,0.91 55.36,0.58 83,-1 13.4,-1.35 25.57,-5.85 36.5,-13.5 -1.44,-43.58 -1.94,-87.25 -1.5,-131 21.33,0 42.67,0 64,0 -0.17,36.67 0,73.33 0.5,110 1.91,19.91 12.74,31.41 32.5,34.5 15.97,1.51 31.97,1.85 48,1 6.88,-0.31 13.54,-1.64 20,-4 3.17,-1.83 5.67,-4.33 7.5,-7.5 0.5,-48.67 0.67,-97.33 0.5,-146 21.33,0 42.67,0 64,0 -0.17,47 0,94 0.5,141 0.82,5.81 3.66,10.31 8.5,13.5 4.18,2.06 8.51,3.73 13,5 20.69,4.94 41.53,9.11 62.5,12.5 16.34,-0.46 24.51,-8.96 24.5,-25.5 -0.99,-59.15 -1.32,-118.32 -1,-177.5 21.33,0 42.67,0 64,0 0.17,62.33 0,124.67 -0.5,187 -1.53,34.25 -16.36,60.75 -44.5,79.5 -17.31,8.79 -35.64,12.12 -55,10 -23.88,-3.98 -47.54,-8.98 -71,-15 -15.81,-4.48 -29.31,-12.65 -40.5,-24.5 -14.13,16.15 -31.97,24.98 -53.5,26.5 -16.69,0.83 -33.36,0.5 -50,-1 -25.98,-3.24 -48.14,-14.07 -66.5,-32.5 -19.26,20.71 -43.09,31.88 -71.5,33.5 -24,0.67 -48,0.67 -72,0 -19.05,-1.9 -34.38,-10.4 -46,-25.5 -15,15.5 -33.33,24 -55,25.5 -225.019,0.99 -450.019,0.66 -675,-1 -27.95,-4.97 -48.117,-20.13 -60.5,-45.5 -4.206,-9.29 -7.206,-18.95 -9,-29 -1.488,-129.31 -1.988,-258.64 -1.5,-388 z"
       id="path9" />
  </g>
  <g
     id="g10"
     transform="matrix(0.05471147,0,0,0.05734659,-1.1215851,-3.8708948)">
    <path
       style="opacity:0.981"
       fill="#026c67"
       d="m 4988.5,1145.5 c 22,0 44,0 66,0 0,24.33 0,48.67 0,73 -22,0 -44,0 -66,0 0,-24.33 0,-48.67 0,-73 z"
       id="path10" />
  </g>
  <g
     id="g11"
     transform="matrix(0.05471147,0,0,0.05734659,-1.1215851,-3.8708948)">
    <path
       style="opacity:0.981"
       fill="#026c67"
       d="m 5074.5,1145.5 c 22,0 44,0 66,0 0,24.33 0,48.67 0,73 -22,0 -44,0 -66,0 0,-24.33 0,-48.67 0,-73 z"
       id="path11" />
  </g>
  <g
     id="g12"
     transform="matrix(0.05471147,0,0,0.05734659,-1.1215851,-3.8708948)">
    <path
       style="opacity:0.979"
       fill="#026c67"
       d="m 5585.5,1159.5 c 23,0 46,0 69,0 0,24.67 0,49.33 0,74 -23,0 -46,0 -69,0 0,-24.67 0,-49.33 0,-74 z"
       id="path12" />
  </g>
  <g
     id="g13"
     transform="matrix(0.05471147,0,0,0.05734659,-1.1215851,-3.8708948)">
    <path
       style="opacity:0.984"
       fill="#026c67"
       d="m 1940.5,1166.5 c 1,0 2,0 3,0 20.46,96.97 40.79,193.97 61,291 -22.33,0 -44.67,0 -67,0 -19.26,-91.95 -38.26,-183.95 -57,-276 20.26,-4.4 40.26,-9.4 60,-15 z"
       id="path13" />
  </g>
  <g
     id="g14"
     transform="matrix(0.05471147,0,0,0.05734659,-1.1215851,-3.8708948)">
    <path
       style="opacity:0.983"
       fill="#026c67"
       d="m 3013.5,1239.5 c 21.67,0 43.33,0 65,0 0,24.67 0,49.33 0,74 -21.67,0 -43.33,0 -65,0 0,-24.67 0,-49.33 0,-74 z"
       id="path14" />
  </g>
  <g
     id="g15"
     transform="matrix(0.05471147,0,0,0.05734659,-1.1215851,-3.8708948)">
    <path
       style="opacity:0.968"
       fill="#026c67"
       d="m 3097.5,1239.5 c 22,0 44,0 66,0 0,24.67 0,49.33 0,74 -22,0 -44,0 -66,0 0,-24.67 0,-49.33 0,-74 z"
       id="path15" />
  </g>
  <g
     id="g16"
     transform="matrix(0.05471147,0,0,0.05734659,-1.1215851,-3.8708948)">
    <path
       style="opacity:0.987"
       fill="#026c67"
       d="m 3266.5,1282.5 c 21.33,0 42.67,0 64,0 0,92.33 0,184.67 0,277 -124.33,0.17 -248.67,0 -373,-0.5 -80.74,-4.74 -125.91,-47.24 -135.5,-127.5 -0.5,-37 -0.67,-74 -0.5,-111 21.33,0 42.67,0 64,0 -0.17,34.33 0,68.67 0.5,103 2.45,31.1 18.62,50.6 48.5,58.5 6.92,1.54 13.92,2.54 21,3 103.67,0.5 207.33,0.67 311,0.5 0,-67.67 0,-135.33 0,-203 z"
       id="path16" />
  </g>
  <g
     id="g17"
     transform="matrix(0.05471147,0,0,0.05734659,-1.1215851,-3.8708948)">
    <path
       style="opacity:0.976"
       fill="#026c67"
       d="m 150.5,1283.5 c 23,0 46,0 69,0 0,24.67 0,49.33 0,74 -23,0 -46,0 -69,0 0,-24.67 0,-49.33 0,-74 z"
       id="path17" />
  </g>
  <g
     id="g18"
     transform="matrix(0.05471147,0,0,0.05734659,-1.1215851,-3.8708948)">
    <path
       style="opacity:0.986"
       fill="#026c67"
       d="m 4974.5,1283.5 c 38.67,-0.17 77.33,0 116,0.5 42.56,2.27 73.06,22.43 91.5,60.5 3.39,8.18 6.39,16.51 9,25 3.46,16.79 7.13,33.45 11,50 6.69,36.57 -0.64,69.9 -22,100 -19.61,21.89 -44.11,34.39 -73.5,37.5 -24.33,0.67 -48.67,0.67 -73,0 -57.89,-7.95 -88.23,-41.12 -91,-99.5 0.61,-8.02 1.45,-16.02 2.5,-24 9.73,-50.04 19.56,-100.04 29.5,-150 z m 51,66 c 22,-0.17 44,0 66,0.5 14.28,2.04 24.44,9.54 30.5,22.5 7.14,23.7 11.97,47.86 14.5,72.5 0.61,27.71 -12.72,43.38 -40,47 -19.33,0.67 -38.67,0.67 -58,0 -24.89,-1.55 -36.05,-14.72 -33.5,-39.5 6.64,-34.39 13.48,-68.72 20.5,-103 z"
       id="path18" />
  </g>
  <g
     id="g19"
     transform="matrix(0.05471147,0,0,0.05734659,-1.1215851,-3.8708948)">
    <path
       style="opacity:0.986"
       fill="#026c67"
       d="m 2483.5,1284.5 c 35.86,-2.88 67.86,6.62 96,28.5 25.44,24.27 38.94,54.1 40.5,89.5 0.67,57.67 0.67,115.33 0,173 -2.63,37.45 -21.13,63.61 -55.5,78.5 -10,4.33 -20.34,7.67 -31,10 -44.26,9.94 -88.42,20.11 -132.5,30.5 -5,-21.65 -9.83,-43.31 -14.5,-65 50.86,-11 101.52,-22.84 152,-35.5 8.02,-3.35 13.19,-9.18 15.5,-17.5 0.5,-5.66 0.67,-11.32 0.5,-17 -26.02,0.38 -52.02,-0.12 -78,-1.5 -52.54,-7.21 -86.7,-36.04 -102.5,-86.5 -2.69,-9.83 -4.36,-19.83 -5,-30 -1.84,-23.94 -0.17,-47.61 5,-71 17.3,-53.13 53.8,-81.8 109.5,-86 z m 4,69 c 18.2,-1.6 34.87,2.57 50,12.5 9.91,8.98 15.74,20.15 17.5,33.5 1.4,30.31 1.9,60.64 1.5,91 -21.34,0.17 -42.67,0 -64,-0.5 -31.73,-0.91 -50.89,-16.75 -57.5,-47.5 -0.67,-14 -0.67,-28 0,-42 5.66,-28.91 23.16,-44.58 52.5,-47 z"
       id="path19" />
  </g>
  <g
     id="g20"
     transform="matrix(0.05471147,0,0,0.05734659,-1.1215851,-3.8708948)">
    <path
       style="opacity:0.986"
       fill="#026c67"
       d="m 5818.5,1284.5 c 35.29,-2.77 66.96,6.4 95,27.5 26.14,24.37 39.97,54.54 41.5,90.5 0.67,57.67 0.67,115.33 0,173 -2.63,37.45 -21.13,63.61 -55.5,78.5 -10,4.33 -20.34,7.67 -31,10 -44.26,9.94 -88.42,20.11 -132.5,30.5 -5,-21.65 -9.83,-43.31 -14.5,-65 50.86,-11 101.52,-22.84 152,-35.5 8.02,-3.35 13.19,-9.18 15.5,-17.5 0.5,-5.66 0.67,-11.32 0.5,-17 -26.02,0.38 -52.02,-0.12 -78,-1.5 -52.54,-7.21 -86.7,-36.04 -102.5,-86.5 -2.69,-9.83 -4.36,-19.83 -5,-30 -1.81,-23.94 -0.14,-47.6 5,-71 17.3,-53.13 53.8,-81.8 109.5,-86 z m 3,69 c 18.2,-1.6 34.87,2.57 50,12.5 10.2,9.22 16.03,20.72 17.5,34.5 0.5,30 0.67,60 0.5,90 -21,0.17 -42,0 -63,-0.5 -31.49,-0.51 -50.66,-16.01 -57.5,-46.5 -1.97,-14.67 -1.97,-29.34 0,-44 5.82,-28.66 23.32,-43.99 52.5,-46 z"
       id="path20" />
  </g>
  <g
     id="g21"
     transform="matrix(0.05471147,0,0,0.05734659,-1.1215851,-3.8708948)">
    <path
       style="opacity:0.987"
       fill="#026c67"
       d="m 5284.5,1301.5 c 21.33,0 42.67,0 64,0 0.17,92.33 0,184.67 -0.5,277 -4.59,42.7 -26.43,72.87 -65.5,90.5 -21.52,8.5 -43.02,17 -64.5,25.5 -7.78,-20.68 -15.95,-41.18 -24.5,-61.5 23.05,-9.13 46.05,-18.46 69,-28 10.86,-6.55 17.7,-16.05 20.5,-28.5 1.49,-91.64 1.99,-183.3 1.5,-275 z"
       id="path21" />
  </g>
  <g
     id="g22"
     transform="matrix(0.05471147,0,0,0.05734659,-1.1215851,-3.8708948)">
    <path
       style="opacity:0.987"
       fill="#026c67"
       d="m 5592.5,1301.5 c 21.33,0 42.67,0 64,0 0.17,92.33 0,184.67 -0.5,277 -5.1,42.4 -26.93,72.56 -65.5,90.5 -21.52,8.5 -43.02,17 -64.5,25.5 -7.78,-20.68 -15.95,-41.18 -24.5,-61.5 23.05,-9.13 46.05,-18.46 69,-28 10.86,-6.55 17.7,-16.05 20.5,-28.5 1.49,-91.64 1.99,-183.3 1.5,-275 z"
       id="path22" />
  </g>
  <g
     id="g23"
     transform="matrix(0.05471147,0,0,0.05734659,-1.1215851,-3.8708948)">
    <path
       style="opacity:0.987"
       fill="#026c67"
       d="m 278.5,1313.5 c 21.333,0 42.667,0 64,0 0.167,86 0,172 -0.5,258 -6.879,60.21 -40.379,93.71 -100.5,100.5 -28.333,0.67 -56.667,0.67 -85,0 -35.651,-1.84 -66.9843,-14.18 -94,-37 -25.0292,-25.24 -38.8626,-55.74 -41.5,-91.5 -0.8031,-14.69 -0.4697,-29.36 1,-44 5.1219,-34.69 10.2885,-69.35 15.5,-104 20.6667,0 41.3333,0 62,0 -5.2118,35.32 -10.3785,70.65 -15.5,106 -2.2878,16.41 -1.9545,32.74 1,49 5.8868,19.56 18.387,33.06 37.5,40.5 8.143,2.79 16.476,4.79 25,6 31.308,1.6 62.642,1.93 94,1 21.914,-1.25 34.081,-12.75 36.5,-34.5 0.5,-83.33 0.667,-166.67 0.5,-250 z"
       id="path23" />
    <g
       id="g24"
       style="clip-rule:evenodd;fill-rule:evenodd;image-rendering:optimizeQuality;shape-rendering:geometricPrecision;text-rendering:geometricPrecision">
      <path
         id="path24"
         d="M 7986.1669,2630.861 C 7217.5244,2630.861 6592.5,2005.5778 6592.5,1236.6174 l 10.3405,-193.1022 h 218.2989 V 751.5631 h 24.1278 V 704.437 h 104.5537 l 29.8725,50.5744 h 54.0003 v 372.4113 h 43.6598 v 51.7238 h 16.0851 V 880.2979 h 175.7882 v 77.011 h 58.596 v 143.6772 h 97.66 V 961.9066 h 130.9794 l 47.1066,59.7697 v 158.6196 h 268.8521 v 40.2296 h -309.065 v -185.0562 l -26.4257,-33.3331 h -71.2344 v 187.3551 h -54.0003 v -48.2756 H 7287.6098 V 997.5385 h -58.596 v -77.011 h -95.3622 v 299.998 h -96.5111 v -52.8732 h -43.6598 V 795.241 h -36.7661 l -29.8725,-50.5744 h -41.3619 v 47.1261 h -24.1278 v 291.9521 h -219.4479 l -8.0426,152.8726 c 0,744.8226 606.6413,1351.7152 1352.305,1351.7152 744.5137,0 1350.0057,-604.5937 1352.3037,-1347.1175 h -137.873 v -237.9295 h -81.575 V 881.4473 h -95.362 v -51.7238 h -116.043 v 36.7814 l -22.979,26.4366 v 220.6882 h -118.341 V 949.263 l -29.872,-33.3331 h -65.4897 v -55.1721 h -74.681 v 359.7677 h -120.639 v -133.3324 h -106.852 v 133.3324 h -283.788 v -40.2296 h 243.575 v -133.3324 h 186.129 v 133.3324 h 40.213 V 820.5282 h 155.107 v 55.172 h 43.6597 l 51.702,58.6203 v 139.0796 h 37.915 v -195.401 l 22.979,-26.4366 v -62.0686 h 197.618 v 52.8732 h 95.362 v 121.8383 h 81.575 v 237.9295 h 137.873 v 35.6319 c 0,768.9604 -625.024,1393.0942 -1392.5167,1393.0942"
         class="st1"
         style="clip-rule:evenodd;fill:#80bc00;fill-rule:evenodd;stroke-width:11.4918;image-rendering:optimizeQuality;shape-rendering:geometricPrecision;text-rendering:geometricPrecision" />
    </g>
  </g>
  <g
     id="g25"
     transform="matrix(0.05471147,0,0,0.05734659,-1.1215851,-3.8708948)">
    <path
       style="opacity:0.977"
       fill="#026c67"
       d="m 1948.5,1587.5 c 13.33,0 26.67,0 40,0 0,12.67 0,25.33 0,38 -15.7,-0.34 -31.37,0.16 -47,1.5 -6.96,1.73 -11.79,5.89 -14.5,12.5 -1.98,5.86 -2.64,11.86 -2,18 23.6,1.98 47.44,2.65 71.5,2 0,12.67 0,25.33 0,38 -41.33,0 -82.67,0 -124,0 0,-12.67 0,-25.33 0,-38 5.67,0 11.33,0 17,0 -0.4,-19.1 4.77,-36.43 15.5,-52 11.79,-12.75 26.29,-19.42 43.5,-20 z"
       id="path25" />
  </g>
  <g
     id="g26"
     transform="matrix(0.05471147,0,0,0.05734659,-1.1215851,-3.8708948)">
    <path
       style="opacity:0.981"
       fill="#026c67"
       d="m 3553.5,1613.5 c 22,0 44,0 66,0 0,24.33 0,48.67 0,73 -22,0 -44,0 -66,0 0,-24.33 0,-48.67 0,-73 z"
       id="path26" />
  </g>
  <g
     id="g27"
     transform="matrix(0.05471147,0,0,0.05734659,-1.1215851,-3.8708948)">
    <path
       style="opacity:0.981"
       fill="#026c67"
       d="m 3638.5,1613.5 c 22,0 44,0 66,0 0,24.33 0,48.67 0,73 -22,0 -44,0 -66,0 0,-24.33 0,-48.67 0,-73 z"
       id="path27" />
  </g>
  <g
     id="g28"
     transform="matrix(0.05471147,0,0,0.05734659,-1.1215851,-3.8708948)">
    <path
       style="opacity:0.976"
       fill="#026c67"
       d="m 4282.5,1615.5 c 23,0 46,0 69,0 0,24.67 0,49.33 0,74 -23,0 -46,0 -69,0 0,-24.67 0,-49.33 0,-74 z"
       id="path28" />
  </g>
  <g
     id="g29"
     transform="matrix(0.05471147,0,0,0.05734659,-1.1215851,-3.8708948)">
    <path
       style="opacity:0.963"
       fill="#7dbc00"
       d="m 339.5,1942.5 c 9.509,-1.38 18.176,0.62 26,6 7.9,9.5 9.066,19.83 3.5,31 -5.338,6.83 -12.338,9.83 -21,9 -19.481,0.04 -28.147,-9.62 -26,-29 3.09,-8.59 8.923,-14.26 17.5,-17 z"
       id="path29" />
  </g>
  <g
     id="g30"
     transform="matrix(0.05471147,0,0,0.05734659,-1.1215851,-3.8708948)">
    <path
       style="opacity:0.964"
       fill="#7dbc00"
       d="m 623.5,1942.5 c 13.475,-2.33 23.975,2 31.5,13 4.986,15.41 0.153,26.25 -14.5,32.5 -12.593,3.02 -23.093,-0.15 -31.5,-9.5 -7.551,-17.21 -2.717,-29.21 14.5,-36 z"
       id="path30" />
  </g>
  <g
     id="g31"
     transform="matrix(0.05471147,0,0,0.05734659,-1.1215851,-3.8708948)">
    <path
       style="opacity:0.963"
       fill="#7dbc00"
       d="m 2496.5,1942.5 c 8.5,-0.99 16.5,0.51 24,4.5 9.8,9.38 11.64,20.22 5.5,32.5 -5.34,6.83 -12.34,9.83 -21,9 -16.33,0.78 -25.16,-6.89 -26.5,-23 0.09,-12.41 6.09,-20.08 18,-23 z"
       id="path31" />
  </g>
  <g
     id="g32"
     transform="matrix(0.05471147,0,0,0.05734659,-1.1215851,-3.8708948)">
    <path
       style="opacity:0.964"
       fill="#7dbc00"
       d="m 2765.5,1942.5 c 11.04,-1.54 20.54,1.46 28.5,9 6.07,10.23 5.74,20.23 -1,30 -5.6,5.31 -12.26,7.64 -20,7 -21.79,-1.57 -29.79,-12.91 -24,-34 3.93,-6.36 9.43,-10.36 16.5,-12 z"
       id="path32" />
  </g>
  <g
     id="g33"
     transform="matrix(0.05471147,0,0,0.05734659,-1.1215851,-3.8708948)">
    <path
       style="opacity:0.963"
       fill="#7dbc00"
       d="m 3336.5,1942.5 c 27.19,-2 37.36,10 30.5,36 -8.06,9.54 -18.23,12.7 -30.5,9.5 -15.37,-5.24 -20.87,-15.74 -16.5,-31.5 3.59,-7.11 9.09,-11.77 16.5,-14 z"
       id="path33" />
  </g>
  <g
     id="g34"
     transform="matrix(0.05471147,0,0,0.05734659,-1.1215851,-3.8708948)">
    <path
       style="opacity:0.963"
       fill="#7dbc00"
       d="m 3554.5,1942.5 c 11.04,-1.54 20.54,1.46 28.5,9 6.07,10.23 5.74,20.23 -1,30 -5.6,5.31 -12.26,7.64 -20,7 -21.78,-1.55 -29.78,-12.88 -24,-34 3.93,-6.36 9.43,-10.36 16.5,-12 z"
       id="path34" />
  </g>
  <g
     id="g35"
     transform="matrix(0.05471147,0,0,0.05734659,-1.1215851,-3.8708948)">
    <path
       style="opacity:0.965"
       fill="#7dbc00"
       d="m 5522.5,1942.5 c 8.7,-0.99 16.7,0.84 24,5.5 9.17,9.86 10.33,20.69 3.5,32.5 -9.5,8.08 -20.34,10.25 -32.5,6.5 -12.12,-5.75 -16.62,-15.25 -13.5,-28.5 1.03,-4.22 3.19,-7.72 6.5,-10.5 3.98,-2.16 7.98,-4 12,-5.5 z"
       id="path35" />
  </g>
  <g
     id="g36"
     transform="matrix(0.05471147,0,0,0.05734659,-1.1215851,-3.8708948)">
    <path
       style="opacity:0.99"
       fill="#7dbc00"
       d="m 3229.5,1946.5 c 15.33,0 30.67,0 46,0 -0.17,65.67 0,131.33 0.5,197 0.5,0.5 1,1 1.5,1.5 4.99,0.5 9.99,0.67 15,0.5 0,13.33 0,26.67 0,40 -15.93,1.11 -30.93,-2.05 -45,-9.5 -9.89,-8.93 -15.72,-20.1 -17.5,-33.5 -0.5,-65.33 -0.67,-130.67 -0.5,-196 z"
       id="path36" />
  </g>
  <g
     id="g37"
     transform="matrix(0.05471147,0,0,0.05734659,-1.1215851,-3.8708948)">
    <path
       style="opacity:0.984"
       fill="#7dbc00"
       d="m 4554.5,1946.5 c 15.33,0 30.67,0 46,0 0,80 0,160 0,240 -15.33,0 -30.67,0 -46,0 0.17,-6.34 0,-12.68 -0.5,-19 -10.71,14.19 -25.04,21.52 -43,22 -39.1,-3.76 -63.44,-24.76 -73,-63 -4.33,-24.77 -1.66,-48.77 8,-72 18.23,-35.02 46.4,-46.85 84.5,-35.5 10.01,4.34 17.84,11.17 23.5,20.5 0.5,-31 0.67,-62 0.5,-93 z m -44,105 c 6.28,1.31 13.28,2.81 21,4.5 10.21,5.55 16.71,14.05 19.5,25.5 2.75,13.88 3.75,27.88 3,42 -5.23,18.52 -17.39,27.68 -36.5,27.5 0.46,-0.41 0.79,-0.91 1,-1.5 -15.18,-1.01 -25.34,-8.67 -30.5,-23 -7.5,-22.28 -5.5,-43.62 6,-64 4.64,-5.17 10.14,-8.84 16.5,-11 z"
       id="path37" />
  </g>
  <g
     id="g38"
     transform="matrix(0.05471147,0,0,0.05734659,-1.1215851,-3.8708948)">
    <path
       style="opacity:0.97"
       fill="#7dbc00"
       d="m 1670.5,1952.5 c 6.67,-0.46 13.17,0.21 19.5,2 0.5,12.33 0.67,24.66 0.5,37 -6.09,-0.48 -12.09,-1.48 -18,-3 -4.67,1.4 -9.33,2.9 -14,4.5 -3.02,2.86 -4.85,6.36 -5.5,10.5 -0.5,4.99 -0.67,9.99 -0.5,15 13,0 26,0 39,0 0,11.67 0,23.33 0,35 -13,0 -26,0 -39,0 0,44.33 0,88.67 0,133 -15.67,0 -31.33,0 -47,0 0,-44.33 0,-88.67 0,-133 -8.67,0 -17.33,0 -26,0 0,-11.67 0,-23.33 0,-35 8.67,0 17.33,0 26,0 0.84,-42.51 22.51,-64.51 65,-66 z"
       id="path38" />
  </g>
  <g
     id="g39"
     transform="matrix(0.05471147,0,0,0.05734659,-1.1215851,-3.8708948)">
    <path
       style="opacity:0.979"
       fill="#7dbc00"
       d="m 32.5,1956.5 c 22.0049,0.07 44.0049,0.41 66,1 16.697,57.78 33.864,115.45 51.5,173 17.641,-57.23 34.975,-114.56 52,-172 23.092,-0.99 46.258,-1.33 69.5,-1 3.616,76.03 7.616,152.03 12,228 -15.661,1.03 -31.328,2.03 -47,3 -2.945,-59.01 -6.112,-118.01 -9.5,-177 -17.536,57.61 -34.869,115.27 -52,173 -15.756,0.99 -31.589,1.32 -47.5,1 -16.854,-58.06 -34.0206,-116.06 -51.5,-174 -3.1993,58.32 -6.0326,116.65 -8.5,175 -15.6873,-0.25 -31.354,-0.91 -47,-2 4.2447,-75.98 8.2447,-151.98 12,-228 z"
       id="path39" />
  </g>
  <g
     id="g40"
     transform="matrix(0.05471147,0,0,0.05734659,-1.1215851,-3.8708948)">
    <path
       style="opacity:0.979"
       fill="#7dbc00"
       d="m 1796.5,1956.5 c 21.67,0.06 43.34,0.39 65,1 16.7,57.78 33.86,115.45 51.5,173 17.64,-57.23 34.97,-114.56 52,-172 23.09,-0.99 46.26,-1.33 69.5,-1 3.55,76.04 7.55,152.04 12,228 -15.66,1.03 -31.33,2.03 -47,3 -2.94,-59.01 -6.11,-118.01 -9.5,-177 -17.54,57.61 -34.87,115.27 -52,173 -15.76,0.99 -31.59,1.32 -47.5,1 -16.32,-56.79 -33.15,-113.46 -50.5,-170 -3.07,56.99 -5.9,113.99 -8.5,171 -15.75,0.08 -31.42,-0.92 -47,-3 4.56,-75.61 8.56,-151.28 12,-227 z"
       id="path40" />
  </g>
  <g
     id="g41"
     transform="matrix(0.05471147,0,0,0.05734659,-1.1215851,-3.8708948)">
    <path
       style="opacity:0.981"
       fill="#7dbc00"
       d="m 876.5,1959.5 c 15.333,0 30.667,0 46,0 0,19.67 0,39.33 0,59 13,0 26,0 39,0 0,11.67 0,23.33 0,35 -13,0 -26,0 -39,0 -0.167,30 0,60 0.5,90 0.833,0.83 1.667,1.67 2.5,2.5 11.995,0.5 23.995,0.67 36,0.5 0,13.33 0,26.67 0,40 -13.671,0.17 -27.337,0 -41,-0.5 -15.836,-2.21 -28.336,-9.71 -37.5,-22.5 -3.399,-6.6 -5.399,-13.6 -6,-21 -0.5,-29.66 -0.667,-59.33 -0.5,-89 -9,0 -18,0 -27,0 0,-11.67 0,-23.33 0,-35 9,0 18,0 27,0 0,-19.67 0,-39.33 0,-59 z"
       id="path41" />
  </g>
  <g
     id="g42"
     transform="matrix(0.05471147,0,0,0.05734659,-1.1215851,-3.8708948)">
    <path
       style="opacity:0.981"
       fill="#7dbc00"
       d="m 3422.5,1959.5 c 15.33,0 30.67,0 46,0 0,19.67 0,39.33 0,59 13,0 26,0 39,0 0,11.67 0,23.33 0,35 -13,0 -26,0 -39,0 -0.17,30 0,60 0.5,90 0.83,0.83 1.67,1.67 2.5,2.5 12,0.5 24,0.67 36,0.5 0,13.33 0,26.67 0,40 -13.67,0.17 -27.34,0 -41,-0.5 -15.84,-2.21 -28.34,-9.71 -37.5,-22.5 -3.4,-6.6 -5.4,-13.6 -6,-21 -0.5,-29.66 -0.67,-59.33 -0.5,-89 -9,0 -18,0 -27,0 0,-11.67 0,-23.33 0,-35 9,0 18,0 27,0 0,-19.67 0,-39.33 0,-59 z"
       id="path42" />
  </g>
  <g
     id="g43"
     transform="matrix(0.05471147,0,0,0.05734659,-1.1215851,-3.8708948)">
    <path
       style="opacity:0.978"
       fill="#7dbc00"
       d="m 4711.5,1959.5 c 15.67,0 31.33,0 47,0 0,29 0,58 0,87 32,0 64,0 96,0 0,-29 0,-58 0,-87 15.67,0 31.33,0 47,0 0,75.67 0,151.33 0,227 -15.67,0 -31.33,0 -47,0 0,-33.33 0,-66.67 0,-100 -32,0 -64,0 -96,0 0,33.33 0,66.67 0,100 -15.67,0 -31.33,0 -47,0 0,-75.67 0,-151.33 0,-227 z"
       id="path43" />
  </g>
  <g
     id="g44"
     transform="matrix(0.05471147,0,0,0.05734659,-1.1215851,-3.8708948)">
    <path
       style="opacity:0.976"
       fill="#7dbc00"
       d="m 510.5,2012.5 c 11.625,1.71 22.625,5.54 33,11.5 16.343,14 24.843,31.83 25.5,53.5 0.5,35.67 0.667,71.33 0.5,107 -15.333,0 -30.667,0 -46,0 0.453,-35.7 -0.047,-71.36 -1.5,-107 -3.145,-21.33 -14.978,-28.49 -35.5,-21.5 -18.108,6.34 -27.941,19.17 -29.5,38.5 -0.5,30.66 -0.667,61.33 -0.5,92 -15.667,0 -31.333,0 -47,0 0,-56.67 0,-113.33 0,-170 15.667,0 31.333,0 47,0 -0.166,10.01 0,20.01 0.5,30 7.872,-14.88 19.705,-25.05 35.5,-30.5 5.617,-1.05 11.284,-1.72 17,-2 0.556,-0.38 0.889,-0.88 1,-1.5 z"
       id="path44" />
  </g>
  <g
     id="g45"
     transform="matrix(0.05471147,0,0,0.05734659,-1.1215851,-3.8708948)">
    <path
       style="opacity:0.989"
       fill="#7dbc00"
       d="m 1095.5,2012.5 c 1.67,0 3.33,0 5,0 0,14.67 0,29.33 0,44 -13.03,0.12 -25.69,2.28 -38,6.5 -12.48,5.81 -20.64,15.31 -24.5,28.5 -0.5,31.66 -0.67,63.33 -0.5,95 -15.33,0 -30.67,0 -46,0 0,-56.67 0,-113.33 0,-170 15.33,0 30.67,0 46,0 -0.17,10.34 0,20.67 0.5,31 13.13,-21.49 32.3,-33.15 57.5,-35 z"
       id="path45" />
  </g>
  <g
     id="g46"
     transform="matrix(0.05471147,0,0,0.05734659,-1.1215851,-3.8708948)">
    <path
       style="opacity:0.978"
       fill="#7dbc00"
       d="m 1474.5,2012.5 c 38.53,0.5 67.03,17.5 85.5,51 15,38.42 8.16,72.25 -20.5,101.5 -31.67,25.42 -66,29.75 -103,13 -42.38,-26.46 -55.88,-63.63 -40.5,-111.5 15.95,-32.73 42.11,-50.73 78.5,-54 z m -2,42 c 19.63,-1.19 34.13,6.81 43.5,24 9.62,23.34 5.12,43.51 -13.5,60.5 -22.77,12.6 -42.27,8.76 -58.5,-11.5 -12.86,-24.57 -9.36,-46.41 10.5,-65.5 5.83,-3.21 11.83,-5.71 18,-7.5 z"
       id="path46" />
  </g>
  <g
     id="g47"
     transform="matrix(0.05471147,0,0,0.05734659,-1.1215851,-3.8708948)">
    <path
       style="opacity:0.977"
       fill="#7dbc00"
       d="m 2382.5,2012.5 c 31.55,3.38 50.72,20.71 57.5,52 0.89,4.97 1.55,9.97 2,15 0.5,35 0.67,70 0.5,105 -15.33,0 -30.67,0 -46,0 0.44,-35.36 -0.06,-70.69 -1.5,-106 -3.16,-22.67 -15.66,-30.17 -37.5,-22.5 -14.43,5.43 -23.59,15.59 -27.5,30.5 -0.5,33.33 -0.67,66.67 -0.5,100 -15.67,0 -31.33,0 -47,0 0,-56.67 0,-113.33 0,-170 15.67,0 31.33,0 47,0 -0.17,9.01 0,18.01 0.5,27 11.95,-20.05 29.45,-30.38 52.5,-31 z"
       id="path47" />
  </g>
  <g
     id="g48"
     transform="matrix(0.05471147,0,0,0.05734659,-1.1215851,-3.8708948)">
    <path
       style="opacity:0.98"
       fill="#7dbc00"
       d="m 2925.5,2012.5 c 39.39,3.55 63.89,24.55 73.5,63 5.65,30.79 0.31,59.45 -16,86 -19.81,24.16 -44.64,31.66 -74.5,22.5 -10.97,-4.31 -19.47,-11.48 -25.5,-21.5 -0.5,31.33 -0.67,62.66 -0.5,94 -15.33,0 -30.67,0 -46,0 0,-80.33 0,-160.67 0,-241 15.33,0 30.67,0 46,0 -0.17,6.67 0,13.34 0.5,20 10.6,-14.38 24.77,-22.05 42.5,-23 z m -8,38 c 2.15,-0.11 2.48,0.56 1,2 17.57,2.06 28.4,11.73 32.5,29 4.96,19.93 2.63,38.93 -7,57 -10.92,12.8 -23.09,15.63 -36.5,8.5 -11.9,-4.91 -19.07,-13.74 -21.5,-26.5 -2.71,-13.55 -3.71,-27.21 -3,-41 4.65,-18.04 16.15,-27.71 34.5,-29 z"
       id="path48" />
  </g>
  <g
     id="g49"
     transform="matrix(0.05471147,0,0,0.05734659,-1.1215851,-3.8708948)">
    <path
       style="opacity:0.971"
       fill="#7dbc00"
       d="m 3697.5,2012.5 c 49.67,0.18 77.51,24.85 83.5,74 0.5,8.66 0.67,17.33 0.5,26 -40.65,1.6 -81.31,2.27 -122,2 3.62,24.12 17.62,36.95 42,38.5 16.49,1.17 30.65,-3.99 42.5,-15.5 8.57,6.37 17.07,12.87 25.5,19.5 1.02,1.05 1.18,2.22 0.5,3.5 -23.88,23.29 -52.38,32.12 -85.5,26.5 -35.74,-6.41 -57.91,-27.24 -66.5,-62.5 -6.06,-31.41 0.6,-59.75 20,-85 16.37,-16.77 36.2,-25.77 59.5,-27 z m -6,35 c 14.39,-2.37 26.56,1.63 36.5,12 5.63,9.19 8.8,19.19 9.5,30 -26,0 -52,0 -78,0 2.53,-20.47 13.2,-34.47 32,-42 z"
       id="path49" />
  </g>
  <g
     id="g50"
     transform="matrix(0.05471147,0,0,0.05734659,-1.1215851,-3.8708948)">
    <path
       style="opacity:0.976"
       fill="#7dbc00"
       d="m 4342.5,2012.5 c 25.41,1.9 43.24,14.56 53.5,38 3.28,9.74 5.28,19.74 6,30 0.5,34.67 0.67,69.33 0.5,104 -15.33,0 -30.67,0 -46,0 0.41,-35.35 -0.09,-70.69 -1.5,-106 -2.86,-22.36 -15.03,-29.86 -36.5,-22.5 -14.87,5.54 -24.04,16.04 -27.5,31.5 -0.5,33 -0.67,66 -0.5,99 -15.67,0 -31.33,0 -47,0 0,-56.67 0,-113.33 0,-170 15.67,0 31.33,0 47,0 -0.17,9.01 0,18.01 0.5,27 7.08,-12.42 17.25,-21.25 30.5,-26.5 7.31,-1.32 14.31,-2.82 21,-4.5 z"
       id="path50" />
  </g>
  <g
     id="g51"
     transform="matrix(0.05471147,0,0,0.05734659,-1.1215851,-3.8708948)">
    <path
       style="opacity:0.979"
       fill="#7dbc00"
       d="m 5017.5,2012.5 c 39.78,0.63 68.61,18.63 86.5,54 16.13,51.63 0.3,89.79 -47.5,114.5 -41.92,15.15 -77.42,5.98 -106.5,-27.5 -18.45,-26.16 -22.45,-54.49 -12,-85 15.57,-34.05 42.07,-52.71 79.5,-56 z m -3,42 c 26.78,-0.36 42.61,12.64 47.5,39 1.83,18.17 -4,33.34 -17.5,45.5 -18.09,10.79 -35.42,9.79 -52,-3 -17.17,-19.56 -19.34,-40.73 -6.5,-63.5 7.37,-9.43 16.87,-15.43 28.5,-18 z"
       id="path51" />
  </g>
  <g
     id="g52"
     transform="matrix(0.05471147,0,0,0.05734659,-1.1215851,-3.8708948)">
    <path
       style="opacity:0.978"
       fill="#7dbc00"
       d="m 5691.5,2012.5 c 30.39,2.88 49.22,19.21 56.5,49 1.65,7.24 2.65,14.58 3,22 0.5,33.67 0.67,67.33 0.5,101 -15.67,0 -31.33,0 -47,0 0.17,-35 0,-70 -0.5,-105 -2.48,-22.81 -14.65,-30.64 -36.5,-23.5 -16.51,6.18 -26.01,18.01 -28.5,35.5 -0.5,31.66 -0.67,63.33 -0.5,95 -15.33,0 -30.67,0 -46,0 0,-56.67 0,-113.33 0,-170 15.33,0 30.67,0 46,0 -0.17,9.67 0,19.34 0.5,29 11.63,-20.56 29.13,-31.56 52.5,-33 z"
       id="path52" />
  </g>
  <g
     id="g53"
     transform="matrix(0.05471147,0,0,0.05734659,-1.1215851,-3.8708948)">
    <path
       style="opacity:0.97"
       fill="#7dbc00"
       d="m 745.5,2014.5 c 20.48,-2.26 39.48,1.91 57,12.5 12.553,10.43 20.219,23.76 23,40 -12.996,0.5 -25.996,0.67 -39,0.5 -4.188,-13.87 -13.688,-20.2 -28.5,-19 -10.617,-0.8 -19.284,2.87 -26,11 -4.328,7.7 -2.494,13.53 5.5,17.5 5.911,1.98 11.911,3.64 18,5 20.493,1.3 39.826,6.63 58,16 14.709,14.81 19.209,32.31 13.5,52.5 -8.288,16.96 -21.455,28.12 -39.5,33.5 -21.583,6.58 -42.916,5.92 -64,-2 -22.516,-10.16 -34.85,-27.66 -37,-52.5 12.684,-0.33 25.351,0 38,1 2.88,13.46 11.214,20.96 25,22.5 11.619,1.17 22.619,-0.83 33,-6 9.178,-8.03 9.178,-16.03 0,-24 -4.177,-2.06 -8.51,-3.73 -13,-5 -17.699,-1.54 -35.032,-4.88 -52,-10 -20.623,-9.06 -29.456,-24.9 -26.5,-47.5 5.509,-20.51 18.342,-34.35 38.5,-41.5 5.406,-1.7 10.739,-3.2 16,-4.5 z"
       id="path53" />
  </g>
  <g
     id="g54"
     transform="matrix(0.05471147,0,0,0.05734659,-1.1215851,-3.8708948)">
    <path
       style="opacity:0.976"
       fill="#7dbc00"
       d="m 2626.5,2014.5 c 26.61,-3.6 50.28,2.9 71,19.5 13.39,12.61 21.05,28.11 23,46.5 -15.34,0.17 -30.67,0 -46,-0.5 -6.16,-20.26 -19.82,-28.59 -41,-25 -13.32,2.99 -21.82,11.16 -25.5,24.5 -3.86,16.98 -2.86,33.64 3,50 8.83,15.29 21.99,21.12 39.5,17.5 13.08,-3.41 21.08,-11.74 24,-25 15.33,-0.5 30.66,-0.67 46,-0.5 -0.7,12.93 -4.87,24.6 -12.5,35 -6.14,5.13 -11.97,10.63 -17.5,16.5 -27.11,16.97 -55.77,19.97 -86,9 -17.44,-7.11 -29.94,-19.27 -37.5,-36.5 -7.98,-18.21 -10.65,-37.21 -8,-57 3.9,-41.73 26.4,-66.4 67.5,-74 z"
       id="path54" />
  </g>
  <g
     id="g55"
     transform="matrix(0.05471147,0,0,0.05734659,-1.1215851,-3.8708948)">
    <path
       style="opacity:0.976"
       fill="#7dbc00"
       d="m 3087.5,2014.5 c 17.16,-2.67 32.83,0.83 47,10.5 4.25,3.58 7.75,7.75 10.5,12.5 0.5,-6.99 0.67,-13.99 0.5,-21 15.67,0 31.33,0 47,0 0,56.67 0,113.33 0,170 -15.67,0 -31.33,0 -47,0 0.17,-6.67 0,-13.34 -0.5,-20 -12.47,16.54 -27.97,23.04 -46.5,19.5 -12.58,-0.08 -24.08,-3.58 -34.5,-10.5 -0.31,0.81 -0.81,1.47 -1.5,2 -20.7,-14.58 -32.54,-34.58 -35.5,-60 -3.32,-28.78 3.02,-55.11 19,-79 10.86,-13.34 24.69,-21.34 41.5,-24 z m 19,36 c 7.17,1.14 14.17,3.31 21,6.5 8.41,6.43 13.58,14.93 15.5,25.5 2.28,13.59 2.95,27.25 2,41 -5.26,17.26 -16.93,26.26 -35,27 -11.09,-1.38 -20.09,-6.38 -27,-15 -12.61,-23.6 -12.61,-47.27 0,-71 6,-7.91 13.83,-12.58 23.5,-14 z"
       id="path55" />
  </g>
  <g
     id="g56"
     transform="matrix(0.05471147,0,0,0.05734659,-1.1215851,-3.8708948)">
    <path
       style="opacity:0.974"
       fill="#7dbc00"
       d="m 3859.5,2014.5 c 22.39,-2.49 42.72,2.68 61,15.5 10.18,10.52 16.51,23.02 19,37.5 -12.67,0.17 -25.34,0 -38,-0.5 -5.06,-13.2 -14.72,-19.37 -29,-18.5 -11.71,-0.72 -20.87,3.61 -27.5,13 -2.22,8.38 0.95,13.88 9.5,16.5 17.92,3.99 35.92,7.66 54,11 6.45,2.73 12.79,5.73 19,9 8.39,7.61 13.56,17.11 15.5,28.5 1.73,25.61 -9.1,43.78 -32.5,54.5 -10.93,4.32 -22.26,6.15 -34,5.5 0,-11.33 0,-22.67 0,-34 9.85,0.66 18.02,-2.67 24.5,-10 4.22,-7.82 2.72,-14.32 -4.5,-19.5 -2.88,-1.61 -5.88,-2.94 -9,-4 -12.93,-2.41 -25.93,-4.41 -39,-6 -13.17,-2.17 -24.67,-7.67 -34.5,-16.5 -16.24,-29.2 -10.41,-53.04 17.5,-71.5 8.92,-4.97 18.25,-8.47 28,-10.5 z"
       id="path56" />
  </g>
  <g
     id="g57"
     transform="matrix(0.05471147,0,0,0.05734659,-1.1215851,-3.8708948)">
    <path
       style="opacity:0.984"
       fill="#7dbc00"
       d="m 4102.5,2014.5 c 18.05,-2.9 34.39,0.93 49,11.5 3.92,3.25 7.09,7.08 9.5,11.5 0.5,-6.99 0.67,-13.99 0.5,-21 15.33,0 30.67,0 46,0 0,56.67 0,113.33 0,170 -15.33,0 -30.67,0 -46,0 0.17,-7.34 0,-14.67 -0.5,-22 -11.76,16.45 -27.93,24.45 -48.5,24 0,-1 0,-2 0,-3 -11.88,-0.02 -22.71,-3.35 -32.5,-10 -0.31,0.81 -0.81,1.47 -1.5,2 -20.22,-14.08 -32.05,-33.42 -35.5,-58 -4.33,-32.05 3.33,-60.71 23,-86 10.36,-9.93 22.53,-16.26 36.5,-19 z m 14,37 c 21.05,-2.16 34.72,6.67 41,26.5 4.45,15.75 4.95,31.58 1.5,47.5 -5.88,15.37 -17.04,23.71 -33.5,25 -15.35,-1.59 -25.85,-9.59 -31.5,-24 -7.44,-22.28 -5.44,-43.62 6,-64 4.63,-5.16 10.13,-8.83 16.5,-11 z"
       id="path57" />
  </g>
  <g
     id="g58"
     transform="matrix(0.05471147,0,0,0.05734659,-1.1215851,-3.8708948)">
    <path
       style="opacity:0.974"
       fill="#7dbc00"
       d="m 5387.5,2014.5 c 20.48,-2.26 39.48,1.91 57,12.5 12.4,10.29 20.07,23.46 23,39.5 -12.98,1 -25.98,1.33 -39,1 -1.96,-8.8 -7.29,-14.63 -16,-17.5 -11.05,-2.66 -21.71,-1.66 -32,3 -12.59,9.73 -11.92,18.06 2,25 17.61,3.91 35.27,7.58 53,11 23.72,6.08 35.72,21.41 36,46 -0.58,15.83 -7.25,28.49 -20,38 -13.94,10.24 -29.61,14.74 -47,13.5 0,-11.33 0,-22.67 0,-34 9.71,0.39 17.88,-2.94 24.5,-10 3.89,-7.68 2.39,-14.18 -4.5,-19.5 -2.92,-1.53 -5.92,-2.86 -9,-4 -14.32,-2.42 -28.65,-4.75 -43,-7 -8.23,-2.78 -16.23,-6.11 -24,-10 -8.87,-6.57 -14.04,-15.4 -15.5,-26.5 -1.84,-21.49 6.33,-37.99 24.5,-49.5 9.41,-5.74 19.41,-9.57 30,-11.5 z"
       id="path58" />
  </g>
  <g
     id="g59"
     transform="matrix(0.05471147,0,0,0.05734659,-1.1215851,-3.8708948)">
    <path
       style="opacity:0.977"
       fill="#7dbc00"
       d="m 5844.5,2014.5 c 16.59,-2.52 31.93,0.65 46,9.5 3.87,3.53 7.37,7.37 10.5,11.5 0.5,-6.32 0.67,-12.66 0.5,-19 15.71,0.32 31.38,-0.02 47,-1 1.17,57.33 1.33,114.66 0.5,172 -3.26,27.04 -17.76,44.87 -43.5,53.5 -7.19,2.3 -14.52,3.96 -22,5 -25.66,0.5 -51.33,0.67 -77,0.5 0,-12.33 0,-24.67 0,-37 24.67,0.17 49.34,0 74,-0.5 9.87,-1.01 16.37,-6.17 19.5,-15.5 1.55,-8.94 1.88,-17.94 1,-27 -11.63,15.23 -27.13,22.56 -46.5,22 0,-1 0,-2 0,-3 -11.98,0.3 -22.82,-3.04 -32.5,-10 -0.69,0.86 -1.52,1.52 -2.5,2 -28.05,-21.25 -39.88,-49.59 -35.5,-85 1.34,-20.33 8,-38.66 20,-55 10.77,-12.63 24.27,-20.3 40.5,-23 z m 13,37 c 25.37,-1.79 39.87,9.88 43.5,35 0.67,12.33 0.67,24.67 0,37 -10.34,25.43 -27.84,32.26 -52.5,20.5 -9.57,-8.31 -15.07,-18.81 -16.5,-31.5 -2.64,-17.44 0.36,-33.77 9,-49 4.3,-5.83 9.8,-9.83 16.5,-12 z"
       id="path59" />
  </g>
  <g
     id="g60"
     transform="matrix(0.05471147,0,0,0.05734659,-1.1215851,-3.8708948)">
    <path
       style="opacity:0.978"
       fill="#7dbc00"
       d="m 1112.5,2016.5 c 16.84,-1.33 33.84,-1.33 51,0 16.56,38.78 33.39,77.45 50.5,116 15.22,-38.78 30.72,-77.45 46.5,-116 16.33,-1.33 32.67,-1.33 49,0 -32.3,80.25 -64.3,160.59 -96,241 -16.33,0 -32.67,0 -49,0 8.84,-23.19 17.84,-46.36 27,-69.5 -25.97,-57.44 -52.31,-114.6 -79,-171.5 z"
       id="path60" />
  </g>
  <g
     id="g61"
     transform="matrix(0.05471147,0,0,0.05734659,-1.1215851,-3.8708948)">
    <path
       style="opacity:0.973"
       fill="#7dbc00"
       d="m 2197.5,2015.5 c 15.67,0 31.33,0 47,0 0,56.67 0,113.33 0,170 -15.67,0 -31.33,0 -47,0 0.17,-9.01 0,-18.01 -0.5,-27 -11.58,19.91 -28.92,30.24 -52,31 -34.38,-4.71 -53.71,-24.38 -58,-59 -1.44,-37.64 -1.94,-75.31 -1.5,-113 15.67,0 31.33,0 47,0 -0.17,35.33 0,70.67 0.5,106 3.18,22.68 15.68,30.18 37.5,22.5 14.04,-5.55 22.87,-15.71 26.5,-30.5 0.5,-33.33 0.67,-66.67 0.5,-100 z"
       id="path61" />
  </g>
  <g
     id="g62"
     transform="matrix(0.05471147,0,0,0.05734659,-1.1215851,-3.8708948)">
    <path
       style="opacity:0.987"
       fill="#7dbc00"
       d="m 5252.5,2015.5 c 15.33,0 30.67,0 46,0 0,56.67 0,113.33 0,170 -15.33,0 -30.67,0 -46,0 0.17,-9.34 0,-18.67 -0.5,-28 -15.78,26.48 -38.61,35.98 -68.5,28.5 -17.58,-5.25 -29.75,-16.41 -36.5,-33.5 -3.26,-8.37 -5.26,-17.04 -6,-26 -0.5,-36.33 -0.67,-72.67 -0.5,-109 15.33,0 30.67,0 46,0 -0.17,34 0,68 0.5,102 0.68,8.7 3.34,16.7 8,24 7.79,5.49 16.29,6.65 25.5,3.5 17.35,-4.68 27.85,-15.85 31.5,-33.5 0.5,-32.66 0.67,-65.33 0.5,-98 z"
       id="path62" />
  </g>
  <g
     id="g63"
     transform="matrix(0.05471147,0,0,0.05734659,-1.1215851,-3.8708948)">
    <path
       style="opacity:0.972"
       fill="#7dbc00"
       d="m 323.5,2016.5 c 15.667,0 31.333,0 47,0 0,56.67 0,113.33 0,170 -15.667,0 -31.333,0 -47,0 0,-56.67 0,-113.33 0,-170 z"
       id="path63" />
  </g>
  <g
     id="g64"
     transform="matrix(0.05471147,0,0,0.05734659,-1.1215851,-3.8708948)">
    <path
       style="opacity:0.993"
       fill="#7dbc00"
       d="m 609.5,2016.5 c 15.333,0 30.667,0 46,0 0,56.67 0,113.33 0,170 -15.333,0 -30.667,0 -46,0 0,-56.67 0,-113.33 0,-170 z"
       id="path64" />
  </g>
  <g
     id="g65"
     transform="matrix(0.05471147,0,0,0.05734659,-1.1215851,-3.8708948)">
    <path
       style="opacity:0.988"
       fill="#7dbc00"
       d="m 2482.5,2016.5 c 15.33,0 30.67,0 46,0 0,56.67 0,113.33 0,170 -15.33,0 -30.67,0 -46,0 0,-56.67 0,-113.33 0,-170 z"
       id="path65" />
  </g>
  <g
     id="g66"
     transform="matrix(0.05471147,0,0,0.05734659,-1.1215851,-3.8708948)">
    <path
       style="opacity:0.988"
       fill="#7dbc00"
       d="m 2750.5,2016.5 c 15.33,0 30.67,0 46,0 0,56.67 0,113.33 0,170 -15.33,0 -30.67,0 -46,0 0,-56.67 0,-113.33 0,-170 z"
       id="path66" />
  </g>
  <g
     id="g67"
     transform="matrix(0.05471147,0,0,0.05734659,-1.1215851,-3.8708948)">
    <path
       style="opacity:0.988"
       fill="#7dbc00"
       d="m 3322.5,2016.5 c 15.33,0 30.67,0 46,0 0,56.67 0,113.33 0,170 -15.33,0 -30.67,0 -46,0 0,-56.67 0,-113.33 0,-170 z"
       id="path67" />
  </g>
  <g
     id="g68"
     transform="matrix(0.05471147,0,0,0.05734659,-1.1215851,-3.8708948)">
    <path
       style="opacity:0.988"
       fill="#7dbc00"
       d="m 3539.5,2016.5 c 15.33,0 30.67,0 46,0 0,56.67 0,113.33 0,170 -15.33,0 -30.67,0 -46,0 0,-56.67 0,-113.33 0,-170 z"
       id="path68" />
  </g>
  <g
     id="g69"
     transform="matrix(0.05471147,0,0,0.05734659,-1.1215851,-3.8708948)">
    <path
       style="opacity:0.993"
       fill="#7dbc00"
       d="m 5505.5,2016.5 c 15.33,0 30.67,0 46,0 0,56.67 0,113.33 0,170 -15.33,0 -30.67,0 -46,0 0,-56.67 0,-113.33 0,-170 z"
       id="path69" />
  </g>
  <g
     id="g70"
     transform="matrix(0.05471147,0,0,0.05734659,-1.1215851,-3.8708948)">
    <path
       style="opacity:0.961"
       fill="#7dbc00"
       d="m 3800.5,2129.5 c 12.67,-0.17 25.34,0 38,0.5 3.19,13.19 11.52,20.85 25,23 3.99,0.5 7.99,0.67 12,0.5 0,11.67 0,23.33 0,35 -22.8,1.01 -42.63,-5.99 -59.5,-21 -8.97,-11.06 -14.13,-23.72 -15.5,-38 z"
       id="path70" />
  </g>
  <g
     id="g71"
     transform="matrix(0.05471147,0,0,0.05734659,-1.1215851,-3.8708948)">
    <path
       style="opacity:0.962"
       fill="#7dbc00"
       d="m 5328.5,2129.5 c 12.67,-0.17 25.34,0 38,0.5 2.94,13.33 11.27,21 25,23 3.99,0.5 7.99,0.67 12,0.5 0,11.67 0,23.33 0,35 -20.86,0.88 -39.53,-4.96 -56,-17.5 -11.32,-11.48 -17.65,-25.31 -19,-41.5 z"
       id="path71" />
  </g>
  <g
     id="g72"
     transform="matrix(0.05471147,0,0,0.05734659,-1.1215851,-3.8708948)"
     inkscape:label="g72">
    <path
       id="path72"
       d="m 7452.7787,2069.3227 c -11.4988,0 -22.9977,3.4595 -33.3466,9.2252 -28.7471,20.7565 -39.096,59.9633 -20.6979,91.0981 6.8993,14.9908 21.8478,24.2159 43.6955,29.9816 5.7495,0 12.6488,1.1532 20.6979,1.1532 86.2413,0 159.8338,-53.0445 223.0773,-102.6295 l 11.4988,-9.2252 8.0492,12.6846 c 28.7471,48.4319 78.1921,83.0261 131.0867,93.4044 3.4496,0 6.8993,0 11.4988,0 37.9461,0 79.3419,-18.4503 87.3911,-57.6571 4.5995,-28.8285 -12.6487,-59.9633 -40.2459,-73.801 -17.2482,-6.9188 -37.9461,-5.7657 -66.6932,5.7657 -6.8993,2.3063 -9.1991,11.5314 -12.6487,24.216 -3.4497,13.8377 -8.0492,33.4411 -28.7471,33.4411 -14.9485,0 -39.096,-12.6846 -48.2951,-29.9817 -4.5995,-9.2251 -4.5995,-19.6034 1.1499,-27.6754 43.6956,-65.729 100.0398,-111.8546 155.2342,-156.8271 25.2974,-20.7565 51.7443,-41.513 75.8923,-64.5759 l 9.199,-8.0719 9.199,8.0719 c 24.148,21.9097 49.445,42.6662 74.742,63.4228 58.645,46.1256 118.438,93.4044 156.385,164.8991 2.299,3.4594 4.599,9.2251 1.149,17.2971 -5.749,13.8377 -28.747,33.4411 -47.145,34.5942 -10.349,2.3063 -17.248,-1.1531 -20.698,-4.6126 -6.899,-6.9188 -5.749,-14.9908 -5.749,-23.0628 0,-5.7657 0,-11.5314 -1.15,-13.8377 -8.049,-17.2971 -25.297,-20.7565 -43.695,-25.369 -33.347,-8.072 -68.993,17.2971 -77.043,53.0444 -3.449,16.144 -1.15,32.288 8.05,46.1256 18.398,24.216 43.695,36.9005 72.442,36.9005 57.494,0 119.588,-48.4319 149.485,-94.5575 l 8.049,-12.6845 11.499,9.2251 c 57.494,46.1256 132.236,99.1701 208.129,99.1701 20.698,0 40.246,-3.4594 58.644,-11.5314 13.798,-5.7657 24.147,-18.4503 28.747,-34.5942 4.599,-17.2971 2.3,-35.7474 -8.049,-49.5851 -12.649,-18.4502 -33.347,-29.9816 -56.345,-29.9816 -22.997,0 -44.845,11.5314 -56.344,28.8285 l -5.749,9.2251 -10.349,-3.4594 c -39.096,-14.9909 -87.391,-36.9005 -111.539,-79.5667 -9.199,-13.8377 -4.599,-35.7474 2.3,-50.7382 8.049,-13.8377 16.098,-17.2971 22.998,-17.2971 2.299,0 5.749,1.1531 8.049,2.3063 18.398,11.5314 37.946,18.4502 56.344,18.4502 33.347,0 57.494,-19.6034 65.543,-50.7382 3.45,-16.1439 0,-33.441 -10.349,-47.2787 -10.349,-14.9909 -25.297,-25.3691 -42.545,-29.9817 -2.3,0 -6.9,-1.1531 -10.349,-1.1531 -29.897,0 -59.794,14.9908 -79.342,38.0536 -12.649,14.9908 -18.398,33.4411 -24.148,53.0445 -5.749,17.2971 -11.499,34.5942 -21.847,50.7382 l -9.2,12.6845 -242.625,-227.1687 10.349,-10.3783 c 261.024,-251.3846 609.438,-340.1764 895.759,-366.6986 -36.796,-3.4595 -73.593,-4.6126 -110.389,-4.6126 -316.218,0 -615.187,109.5483 -840.564,306.7354 l -8.049,6.9188 -9.199,-6.9188 c -118.4384,-87.6387 -277.1223,-194.8808 -458.8038,-249.0784 -170.1826,-49.585 -340.3653,-69.1884 -503.6487,-55.3507 286.3209,25.3691 635.8853,114.1609 896.9087,366.6987 l 10.3489,10.3782 -240.3255,223.7093 -9.1991,-12.6845 c -10.3489,-16.144 -16.0983,-33.4411 -21.8477,-50.7382 -5.7494,-19.6034 -11.4989,-38.0537 -24.1476,-53.0445 -17.2482,-17.2971 -35.6463,-27.6754 -60.9438,-38.0536 -39.096,-8.072 -73.5925,13.8377 -81.6417,53.0444 -4.5995,28.8285 12.6488,59.9633 40.2459,73.801 3.4497,1.1532 9.1991,2.3063 16.0984,2.3063 18.3981,0 35.6464,-6.9188 52.8946,-14.9908 l 8.0492,-3.4594 c 3.4496,-1.1532 5.7494,-1.1532 8.0492,-1.1532 10.3489,0 20.6979,6.9189 27.5972,19.6034 6.8993,13.8377 10.3489,34.5942 1.1499,48.4319 -22.9977,41.5131 -71.2928,63.4227 -110.3888,78.4136 l -9.1991,3.4594 -5.7494,-8.072 c -14.9485,-16.144 -36.7962,-27.6754 -58.644,-27.6754 m 9.1991,157.9803 c -8.0492,0 -16.0984,0 -25.2975,-1.1531 -31.0468,-8.072 -51.7447,-21.9097 -63.2435,-43.8194 -24.1476,-42.6662 -11.4989,-96.8638 29.8969,-126.8454 41.3958,-24.216 91.9907,-12.6846 121.8876,20.7565 33.3466,-12.6846 70.1429,-32.288 88.541,-63.4227 1.1499,-2.3063 2.2998,-6.9189 0,-14.9909 -2.2998,-6.9188 -4.5995,-10.3782 -6.8993,-12.6845 l -5.7494,2.3063 c -18.3981,8.0719 -40.2459,16.1439 -63.2436,16.1439 -9.199,0 -17.2482,-1.1531 -26.4473,-4.6125 -39.096,-19.6034 -62.0937,-62.2696 -56.3442,-103.7827 10.3489,-46.1256 47.1452,-76.1073 91.9906,-76.1073 8.0492,0 14.9485,1.1532 22.9976,2.3063 l 2.2998,1.1532 c 28.7471,11.5314 50.5949,23.0628 72.4426,44.9724 17.2483,19.6034 24.1476,41.5131 29.897,63.4228 3.4496,10.3782 6.8993,19.6034 10.3489,28.8285 l 195.4801,-182.1962 C 7582.7155,1497.365 7169.9075,1429.3297 6874.3876,1420.1046 l -121.8876,-3.4594 119.5878,-23.0628 c 208.1288,-40.36 430.0562,-27.6754 651.9836,36.9005 182.8314,53.0444 340.3654,159.1334 458.8035,246.772 228.827,-198.3401 530.096,-306.7354 849.763,-306.7354 85.092,0 169.033,8.072 251.825,23.0629 l 123.037,23.0628 -124.187,3.4594 c -295.52,8.072 -708.328,77.2604 -1006.148,357.4736 l 195.48,182.1962 c 3.45,-9.2251 6.9,-19.6034 10.349,-28.8285 6.9,-20.7566 13.799,-42.6662 29.897,-62.2696 27.597,-33.4411 74.743,-53.0445 116.138,-46.1256 25.298,5.7657 45.996,20.7565 59.794,41.513 14.949,21.9097 19.548,46.1256 13.799,69.1885 -11.499,43.8193 -45.995,71.4947 -90.841,71.4947 -20.698,0 -42.546,-5.7657 -63.243,-17.2971 -3.45,6.9188 -6.9,19.6033 -3.45,24.2159 18.398,32.2879 55.194,51.8913 88.541,64.5759 17.248,-20.7565 43.695,-32.288 72.443,-32.288 32.196,0 62.093,14.9909 79.341,41.5131 14.949,20.7565 19.548,47.2788 11.499,72.6479 -6.899,24.2159 -22.997,42.6662 -43.695,51.8913 -21.848,9.2251 -44.846,13.8377 -68.993,13.8377 -79.342,0 -155.234,-49.5851 -213.878,-95.7107 -36.797,48.4319 -101.19,94.5575 -163.284,94.5575 -36.796,0 -70.143,-17.2971 -94.29,-48.4319 -13.799,-20.7565 -18.398,-46.1256 -12.649,-69.1884 10.349,-42.6662 49.445,-74.9541 90.841,-74.9541 6.899,0 12.649,1.1531 19.548,2.3062 21.848,5.7657 47.145,11.5314 60.944,38.0537 5.749,8.072 5.749,19.6034 5.749,28.8285 v 0 c 5.749,-1.1531 16.098,-10.3783 20.698,-14.9908 -34.497,-63.4228 -89.691,-107.2421 -147.185,-152.2146 -22.998,-17.2971 -45.995,-35.7473 -67.843,-55.3507 -21.848,20.7565 -45.9955,39.2067 -67.8433,57.657 -56.3442,46.1256 -108.089,88.7918 -149.4848,151.0614 1.1499,4.6126 16.0984,14.9908 24.1476,14.9908 1.1499,-2.3062 3.4496,-9.2251 4.5995,-13.8377 3.4497,-14.9908 9.1991,-34.5942 28.7471,-42.6662 35.6464,-13.8376 62.0937,-14.9908 88.541,-4.6125 37.9459,19.6034 60.9439,62.2696 55.1939,102.6295 -12.648,62.2696 -77.0417,85.3324 -129.9363,79.5667 -56.3443,-10.3783 -109.2389,-44.9725 -142.5855,-93.4044 -67.8431,49.5851 -143.7354,99.1701 -232.2763,99.1701"
       class="st1"
       style="clip-rule:evenodd;fill:#80bc00;fill-rule:evenodd;stroke-width:11.5151;image-rendering:optimizeQuality;shape-rendering:geometricPrecision;text-rendering:geometricPrecision" />
  </g>
</svg>
