 <svg *ngIf="!arLang" width="182" height="182" viewBox="0 0 182 182" fill="none" xmlns="http://www.w3.org/2000/svg">
                        <path d="M163.532 16L150.5 3.68785L137.468 16H163.532Z" stroke="url(#paint0_linear_107_322)"/>
                        <g filter="url(#filter0_bd_107_322)">
                        <path d="M61.4 91L135.4 17H165V76.2H105.8V165H17V91H61.4Z" fill="white" fill-opacity="0.04" shape-rendering="crispEdges"/>
                        <path d="M61.7536 91.3536L61.6071 91.5H61.4H17.5V164.5H105.3V76.2V75.7H105.8H164.5V17.5H135.607L61.7536 91.3536Z" stroke="url(#paint1_linear_107_322)" stroke-opacity="0.59" shape-rendering="crispEdges"/>
                        </g>
                        <path d="M106 129.5H18" stroke="url(#paint2_linear_107_322)"/>
                        <path d="M31.1477 120V108.364H38.7159V110.131H33.2557V113.29H38.3239V115.057H33.2557V118.233H38.7614V120H31.1477ZM42.8324 114.886V120H40.7756V111.273H42.7415V112.756H42.8438C43.0445 112.267 43.3646 111.879 43.804 111.591C44.2472 111.303 44.7945 111.159 45.446 111.159C46.0483 111.159 46.5729 111.288 47.0199 111.545C47.4706 111.803 47.8191 112.176 48.0653 112.665C48.3153 113.153 48.4384 113.746 48.4347 114.443V120H46.3778V114.761C46.3778 114.178 46.2263 113.722 45.9233 113.392C45.6241 113.062 45.2093 112.898 44.679 112.898C44.3191 112.898 43.9991 112.977 43.7188 113.136C43.4422 113.292 43.2244 113.517 43.0653 113.812C42.91 114.108 42.8324 114.466 42.8324 114.886ZM54.321 123.455C53.5824 123.455 52.9479 123.354 52.4176 123.153C51.8873 122.956 51.4612 122.691 51.1392 122.358C50.8172 122.025 50.5938 121.655 50.4688 121.25L52.321 120.801C52.4044 120.972 52.5256 121.14 52.6847 121.307C52.8438 121.477 53.0578 121.617 53.3267 121.727C53.5994 121.841 53.9422 121.898 54.3551 121.898C54.9384 121.898 55.4214 121.756 55.804 121.472C56.1866 121.191 56.3778 120.729 56.3778 120.085V118.432H56.2756C56.1695 118.644 56.0142 118.862 55.8097 119.085C55.6089 119.309 55.3419 119.496 55.0085 119.648C54.679 119.799 54.2642 119.875 53.7642 119.875C53.0938 119.875 52.4858 119.718 51.9403 119.403C51.3987 119.085 50.9669 118.612 50.6449 117.983C50.3267 117.35 50.1676 116.559 50.1676 115.608C50.1676 114.65 50.3267 113.841 50.6449 113.182C50.9669 112.519 51.4006 112.017 51.946 111.676C52.4915 111.331 53.0994 111.159 53.7699 111.159C54.2813 111.159 54.7017 111.246 55.0312 111.42C55.3646 111.591 55.6297 111.797 55.8267 112.04C56.0237 112.278 56.1733 112.504 56.2756 112.716H56.3892V111.273H58.4176V120.142C58.4176 120.888 58.2396 121.506 57.8835 121.994C57.5275 122.483 57.0407 122.848 56.4233 123.091C55.8059 123.333 55.1051 123.455 54.321 123.455ZM54.3381 118.261C54.7737 118.261 55.1449 118.155 55.4517 117.943C55.7585 117.731 55.9915 117.426 56.1506 117.028C56.3097 116.631 56.3892 116.153 56.3892 115.597C56.3892 115.047 56.3097 114.566 56.1506 114.153C55.9953 113.741 55.7642 113.42 55.4574 113.193C55.1544 112.962 54.7813 112.847 54.3381 112.847C53.8797 112.847 53.4972 112.966 53.1903 113.205C52.8835 113.443 52.6525 113.771 52.4972 114.188C52.3419 114.6 52.2642 115.07 52.2642 115.597C52.2642 116.131 52.3419 116.598 52.4972 117C52.6563 117.398 52.8892 117.708 53.196 117.932C53.5066 118.152 53.8873 118.261 54.3381 118.261ZM62.5824 108.364V120H60.5256V108.364H62.5824ZM64.6974 120V111.273H66.7543V120H64.6974ZM65.7315 110.034C65.4058 110.034 65.1255 109.926 64.8906 109.71C64.6558 109.491 64.5384 109.227 64.5384 108.92C64.5384 108.61 64.6558 108.347 64.8906 108.131C65.1255 107.911 65.4058 107.801 65.7315 107.801C66.0611 107.801 66.3414 107.911 66.5724 108.131C66.8073 108.347 66.9247 108.61 66.9247 108.92C66.9247 109.227 66.8073 109.491 66.5724 109.71C66.3414 109.926 66.0611 110.034 65.7315 110.034ZM75.767 113.58L73.892 113.784C73.839 113.595 73.7462 113.417 73.6136 113.25C73.4848 113.083 73.3106 112.949 73.0909 112.847C72.8712 112.744 72.6023 112.693 72.2841 112.693C71.8561 112.693 71.4962 112.786 71.2045 112.972C70.9167 113.157 70.7746 113.398 70.7784 113.693C70.7746 113.947 70.8674 114.153 71.0568 114.312C71.25 114.472 71.5682 114.602 72.0114 114.705L73.5 115.023C74.3258 115.201 74.9394 115.483 75.3409 115.869C75.7462 116.256 75.9508 116.761 75.9545 117.386C75.9508 117.936 75.7898 118.42 75.4716 118.841C75.1572 119.258 74.7197 119.583 74.1591 119.818C73.5985 120.053 72.9545 120.17 72.2273 120.17C71.1591 120.17 70.2992 119.947 69.6477 119.5C68.9962 119.049 68.608 118.422 68.483 117.619L70.4886 117.426C70.5795 117.82 70.7727 118.117 71.0682 118.318C71.3636 118.519 71.7481 118.619 72.2216 118.619C72.7102 118.619 73.1023 118.519 73.3977 118.318C73.697 118.117 73.8466 117.869 73.8466 117.574C73.8466 117.324 73.75 117.117 73.5568 116.955C73.3674 116.792 73.072 116.667 72.6705 116.58L71.1818 116.267C70.3447 116.093 69.7254 115.799 69.3239 115.386C68.9223 114.97 68.7235 114.443 68.7273 113.807C68.7235 113.269 68.8693 112.803 69.1648 112.409C69.464 112.011 69.8788 111.705 70.4091 111.489C70.9432 111.269 71.5587 111.159 72.2557 111.159C73.2784 111.159 74.0833 111.377 74.6705 111.812C75.2614 112.248 75.6269 112.837 75.767 113.58ZM79.7074 114.886V120H77.6506V108.364H79.6619V112.756H79.7642C79.9688 112.263 80.285 111.875 80.7131 111.591C81.1449 111.303 81.6941 111.159 82.3608 111.159C82.9669 111.159 83.4953 111.286 83.946 111.54C84.3968 111.794 84.7453 112.165 84.9915 112.653C85.2415 113.142 85.3665 113.739 85.3665 114.443V120H83.3097V114.761C83.3097 114.174 83.1581 113.718 82.8551 113.392C82.5559 113.062 82.1354 112.898 81.5938 112.898C81.2301 112.898 80.9044 112.977 80.6165 113.136C80.3324 113.292 80.1089 113.517 79.946 113.812C79.7869 114.108 79.7074 114.466 79.7074 114.886Z" fill="white"/>
                        <path d="M43.896 150.08C43.1387 150.08 42.4827 149.984 41.928 149.792C41.384 149.589 40.9627 149.269 40.664 148.832C40.3653 148.384 40.1947 147.787 40.152 147.04L39.864 140.592H42.12L42.392 146.256C42.4133 146.693 42.4827 147.029 42.6 147.264C42.728 147.488 42.9093 147.643 43.144 147.728C43.3787 147.803 43.6827 147.84 44.056 147.84C44.4613 147.84 44.7493 147.947 44.92 148.16C45.0907 148.363 45.176 148.619 45.176 148.928C45.176 149.259 45.064 149.536 44.84 149.76C44.6267 149.973 44.312 150.08 43.896 150.08ZM40.968 148.592C40.2533 148.752 39.5653 148.827 38.904 148.816C38.2427 148.795 37.6507 148.677 37.128 148.464C36.6053 148.24 36.1893 147.92 35.88 147.504C35.5813 147.088 35.432 146.56 35.432 145.92C35.432 145.355 35.5547 144.843 35.8 144.384C36.056 143.915 36.408 143.504 36.856 143.152C37.3147 142.8 37.848 142.501 38.456 142.256C39.064 142.011 39.7253 141.824 40.44 141.696L40.664 143.968C40.2053 143.989 39.7893 144.053 39.416 144.16C39.0533 144.256 38.7387 144.384 38.472 144.544C38.216 144.704 38.0187 144.885 37.88 145.088C37.7413 145.28 37.672 145.488 37.672 145.712C37.672 145.893 37.736 146.043 37.864 146.16C37.992 146.277 38.1627 146.373 38.376 146.448C38.5893 146.512 38.8347 146.549 39.112 146.56C39.3893 146.571 39.672 146.555 39.96 146.512C40.2587 146.469 40.552 146.4 40.84 146.304L40.968 148.592ZM41.016 138.944C40.7067 138.944 40.44 138.837 40.216 138.624C40.0027 138.4 39.896 138.139 39.896 137.84C39.896 137.531 40.0027 137.264 40.216 137.04C40.44 136.816 40.7067 136.704 41.016 136.704C41.3147 136.704 41.5707 136.816 41.784 137.04C41.9973 137.264 42.104 137.531 42.104 137.84C42.104 138.139 41.9973 138.4 41.784 138.624C41.5707 138.837 41.3147 138.944 41.016 138.944ZM38.248 138.928C37.9387 138.928 37.672 138.821 37.448 138.608C37.2347 138.384 37.128 138.123 37.128 137.824C37.128 137.515 37.2347 137.248 37.448 137.024C37.672 136.8 37.9387 136.688 38.248 136.688C38.5467 136.688 38.8027 136.8 39.016 137.024C39.2293 137.248 39.336 137.515 39.336 137.824C39.336 138.123 39.2293 138.384 39.016 138.608C38.8027 138.821 38.5467 138.928 38.248 138.928ZM43.8906 150.08L44.0506 147.84C44.4346 147.84 44.7653 147.803 45.0426 147.728C45.32 147.653 45.5546 147.504 45.7466 147.28C45.9386 147.045 46.0986 146.704 46.2266 146.256C46.3653 145.808 46.488 145.211 46.5946 144.464L48.6906 144.816C48.6693 144.976 48.6373 145.163 48.5946 145.376C48.5626 145.589 48.5306 145.808 48.4986 146.032C48.4773 146.245 48.4666 146.448 48.4666 146.64C48.4666 146.832 48.504 147.003 48.5786 147.152C48.6533 147.301 48.7706 147.429 48.9306 147.536C49.1013 147.632 49.32 147.707 49.5866 147.76C49.864 147.813 50.2 147.84 50.5946 147.84C51 147.84 51.288 147.947 51.4586 148.16C51.6293 148.363 51.7146 148.619 51.7146 148.928C51.7146 149.259 51.6026 149.536 51.3786 149.76C51.1653 149.973 50.8506 150.08 50.4346 150.08C49.9546 150.08 49.5173 150.043 49.1226 149.968C48.7386 149.893 48.4026 149.771 48.1146 149.6C47.8373 149.419 47.608 149.184 47.4266 148.896C47.256 148.597 47.1493 148.235 47.1066 147.808H47.8746C47.6826 148.32 47.4373 148.731 47.1386 149.04C46.8506 149.339 46.5253 149.563 46.1626 149.712C45.8 149.861 45.4213 149.957 45.0266 150C44.6426 150.053 44.264 150.08 43.8906 150.08ZM48.3546 153.792C48.0453 153.792 47.7786 153.68 47.5546 153.456C47.3413 153.243 47.2346 152.987 47.2346 152.688C47.2346 152.379 47.3413 152.112 47.5546 151.888C47.7786 151.664 48.0453 151.552 48.3546 151.552C48.6533 151.552 48.9093 151.664 49.1226 151.888C49.336 152.112 49.4426 152.379 49.4426 152.688C49.4426 152.987 49.336 153.243 49.1226 153.456C48.9093 153.68 48.6533 153.792 48.3546 153.792ZM45.5866 153.792C45.2773 153.792 45.0106 153.68 44.7866 153.456C44.5733 153.243 44.4666 152.987 44.4666 152.688C44.4666 152.379 44.5733 152.112 44.7866 151.888C45.0106 151.664 45.2773 151.552 45.5866 151.552C45.8853 151.552 46.1413 151.664 46.3546 151.888C46.568 152.112 46.6746 152.379 46.6746 152.688C46.6746 152.987 46.568 153.243 46.3546 153.456C46.1413 153.68 45.8853 153.792 45.5866 153.792ZM50.4375 150.08L50.5975 147.84C51.0668 147.84 51.4348 147.808 51.7015 147.744C51.9788 147.68 52.1762 147.563 52.2935 147.392C52.4108 147.211 52.4695 146.955 52.4695 146.624C52.4695 146.325 52.4268 145.968 52.3415 145.552C52.2668 145.136 52.1655 144.704 52.0375 144.256C51.9095 143.808 51.7815 143.397 51.6535 143.024L53.8615 142.416C53.9895 142.779 54.1175 143.2 54.2455 143.68C54.3735 144.16 54.4802 144.656 54.5655 145.168C54.6615 145.669 54.7095 146.155 54.7095 146.624C54.7095 147.211 54.6348 147.707 54.4855 148.112C54.3362 148.507 54.1282 148.837 53.8615 149.104C53.6055 149.36 53.2962 149.563 52.9335 149.712C52.5815 149.851 52.1922 149.947 51.7655 150C51.3388 150.053 50.8962 150.08 50.4375 150.08ZM52.4055 153.76C52.0962 153.76 51.8295 153.653 51.6055 153.44C51.3922 153.227 51.2855 152.965 51.2855 152.656C51.2855 152.347 51.3922 152.075 51.6055 151.84C51.8295 151.616 52.0962 151.504 52.4055 151.504C52.7148 151.504 52.9762 151.616 53.1895 151.84C53.4135 152.075 53.5255 152.347 53.5255 152.656C53.5255 152.965 53.4135 153.227 53.1895 153.44C52.9762 153.653 52.7148 153.76 52.4055 153.76ZM55.7716 153.696L54.9556 151.712C55.521 151.52 56.0383 151.296 56.5076 151.04C56.9876 150.784 57.4036 150.501 57.7556 150.192C58.1076 149.883 58.3796 149.547 58.5716 149.184C58.7636 148.811 58.8596 148.411 58.8596 147.984C58.8596 147.536 58.7583 147.045 58.5556 146.512C58.353 145.979 58.1076 145.435 57.8196 144.88L59.9156 143.872C60.1076 144.203 60.273 144.56 60.4116 144.944C60.561 145.317 60.6836 145.653 60.7796 145.952C60.8756 146.251 60.9396 146.453 60.9716 146.56C61.121 147.072 61.3236 147.413 61.5796 147.584C61.8463 147.755 62.273 147.84 62.8596 147.84C63.265 147.84 63.553 147.947 63.7236 148.16C63.905 148.363 63.9956 148.619 63.9956 148.928C63.9956 149.259 63.8836 149.536 63.6596 149.76C63.4356 149.973 63.1156 150.08 62.6996 150.08C62.2623 150.08 61.8783 150.016 61.5476 149.888C61.217 149.76 60.9503 149.573 60.7476 149.328C60.5556 149.083 60.433 148.795 60.3796 148.464L60.9716 148.8C60.9076 149.365 60.721 149.899 60.4116 150.4C60.113 150.912 59.7236 151.381 59.2436 151.808C58.7636 152.235 58.225 152.608 57.6276 152.928C57.0303 153.248 56.4116 153.504 55.7716 153.696ZM62.6547 150.08L62.8148 147.84C63.5614 147.84 64.2334 147.792 64.8307 147.696C65.4281 147.589 65.9508 147.451 66.3988 147.28C66.8574 147.109 67.2361 146.912 67.5348 146.688C67.8441 146.464 68.0734 146.229 68.2228 145.984C68.3828 145.728 68.4628 145.477 68.4628 145.232C68.4628 145.093 68.4254 144.965 68.3508 144.848C68.2868 144.72 68.1748 144.619 68.0148 144.544C67.8548 144.459 67.6361 144.416 67.3588 144.416C67.2201 144.416 67.0548 144.432 66.8628 144.464C66.6708 144.496 66.4788 144.544 66.2868 144.608C66.0948 144.661 65.9134 144.736 65.7428 144.832C65.9668 145.003 66.2121 145.221 66.4788 145.488C66.7454 145.744 67.0121 146.016 67.2788 146.304C67.5454 146.581 67.7748 146.853 67.9668 147.12C68.1908 147.216 68.4361 147.312 68.7028 147.408C68.9801 147.493 69.2788 147.568 69.5988 147.632C69.9188 147.696 70.2548 147.749 70.6068 147.792C70.9588 147.824 71.3214 147.84 71.6948 147.84C72.1001 147.84 72.3881 147.947 72.5588 148.16C72.7401 148.363 72.8308 148.619 72.8308 148.928C72.8308 149.259 72.7188 149.536 72.4948 149.76C72.2708 149.973 71.9508 150.08 71.5347 150.08C70.6814 150.08 69.9241 150.016 69.2628 149.888C68.6014 149.749 68.0094 149.552 67.4868 149.296C66.9748 149.029 66.4948 148.709 66.0468 148.336C65.9188 148.112 65.7374 147.872 65.5028 147.616C65.2788 147.349 65.0388 147.093 64.7828 146.848C64.5374 146.603 64.3134 146.4 64.1108 146.24C64.0574 146.197 63.9934 146.085 63.9188 145.904C63.8548 145.712 63.7961 145.515 63.7428 145.312C63.6894 145.099 63.6628 144.949 63.6628 144.864C63.6628 144.619 63.7748 144.357 63.9988 144.08C64.2334 143.803 64.5428 143.547 64.9268 143.312C65.3214 143.067 65.7534 142.869 66.2228 142.72C66.7028 142.56 67.1881 142.48 67.6788 142.48C68.3401 142.48 68.8894 142.581 69.3268 142.784C69.7748 142.976 70.1108 143.248 70.3348 143.6C70.5588 143.941 70.6708 144.341 70.6708 144.8C70.6708 145.312 70.5588 145.824 70.3348 146.336C70.1108 146.837 69.7801 147.312 69.3428 147.76C68.9161 148.208 68.3774 148.608 67.7268 148.96C67.0868 149.301 66.3401 149.573 65.4868 149.776C64.6441 149.979 63.7001 150.08 62.6547 150.08ZM71.5469 150.08L71.7069 147.84C72.1975 147.84 72.5495 147.792 72.7629 147.696C72.9762 147.589 73.1042 147.397 73.1469 147.12C73.1895 146.832 73.2002 146.416 73.1789 145.872L72.8909 138.288H75.1469L75.4669 146.032C75.4882 146.651 75.4615 147.211 75.3869 147.712C75.3229 148.203 75.1575 148.624 74.8909 148.976C74.6349 149.328 74.2349 149.6 73.6909 149.792C73.1575 149.984 72.4429 150.08 71.5469 150.08ZM77.5769 150L77.2409 138.288H79.4809L79.8169 150H77.5769Z" fill="white"/>
                        <path (click)="changeLanguage('en')"d="M104 97H18V128H104V97Z" fill="#CB4242" fill-opacity="0.75"/>
                        <path (click)="changeLanguage('ar')" d="M103 132H18V163H103V132Z" fill="#DE5B5B" fill-opacity="0.65"/>
                        <defs>
                        <filter id="filter0_bd_107_322" x="0" y="0" width="182" height="182" filterUnits="userSpaceOnUse" color-interpolation-filters="sRGB">
                        <feFlood flood-opacity="0" result="BackgroundImageFix"/>
                        <feGaussianBlur in="BackgroundImageFix" stdDeviation="2"/>
                        <feComposite in2="SourceAlpha" operator="in" result="effect1_backgroundBlur_107_322"/>
                        <feColorMatrix in="SourceAlpha" type="matrix" values="0 0 0 0 0 0 0 0 0 0 0 0 0 0 0 0 0 0 127 0" result="hardAlpha"/>
                        <feOffset/>
                        <feGaussianBlur stdDeviation="8.5"/>
                        <feComposite in2="hardAlpha" operator="out"/>
                        <feColorMatrix type="matrix" values="0 0 0 0 0 0 0 0 0 0 0 0 0 0 0 0 0 0 0.33 0"/>
                        <feBlend mode="normal" in2="effect1_backgroundBlur_107_322" result="effect2_dropShadow_107_322"/>
                        <feBlend mode="normal" in="SourceGraphic" in2="effect2_dropShadow_107_322" result="shape"/>
                        </filter>
                        <linearGradient id="paint0_linear_107_322" x1="150.5" y1="3" x2="150.5" y2="16.5" gradientUnits="userSpaceOnUse">
                        <stop stop-color="white"/>
                        <stop offset="0.897494" stop-color="white" stop-opacity="0"/>
                        </linearGradient>
                        <linearGradient id="paint1_linear_107_322" x1="91" y1="17" x2="91" y2="165" gradientUnits="userSpaceOnUse">
                        <stop stop-color="white"/>
                        <stop offset="0.689545" stop-color="#00263E"/>
                        </linearGradient>
                        <linearGradient id="paint2_linear_107_322" x1="107" y1="130.5" x2="20" y2="130.5" gradientUnits="userSpaceOnUse">
                        <stop stop-color="#848181" stop-opacity="0.2"/>
                        <stop offset="0.5" stop-color="#BBB0B0"/>
                        <stop offset="1" stop-color="#A4A1A1" stop-opacity="0.2"/>
                        </linearGradient>
                        </defs>
                        </svg>