<svg xmlns="http://www.w3.org/2000/svg" width="60.375" height="36.167" viewBox="0 0 60.375 36.167"><g transform="translate(-171.313 -385.917)"><path d="M36.75,37.458H5.25V16.792h31.5Zm1.312-24.542H3.938A2.612,2.612,0,0,0,1.313,15.5V38.75a2.612,2.612,0,0,0,2.625,2.583H17.063v3.875H11.156v3.875H30.844V45.208H24.938V41.333H38.063a2.612,2.612,0,0,0,2.625-2.583V15.5A2.612,2.612,0,0,0,38.063,12.917Z" transform="translate(170 373)" fill="#0c273c"/><path d="M59.063,19.375H45.938V15.5H59.063Zm0,6.458H45.938V21.958H59.063ZM52.5,45.208a1.938,1.938,0,1,1,1.969-1.937A1.918,1.918,0,0,1,52.5,45.208Zm6.562-32.292H45.938A2.612,2.612,0,0,0,43.313,15.5v31a2.612,2.612,0,0,0,2.625,2.583H59.063A2.612,2.612,0,0,0,61.688,46.5v-31A2.612,2.612,0,0,0,59.063,12.917Z" transform="translate(170 373)" fill="#0c273c"/></g></svg>