<svg xmlns="http://www.w3.org/2000/svg" width="44.625" height="43.917" viewBox="0 0 44.625 43.917"><g transform="translate(-179.188 -551.042)"><path d="M9.188,49.083H53.813v3.875H9.188Z" transform="translate(170 542)" fill="#0c273c"/><path d="M9.188,9.042h5.25V46.5H9.188Z" transform="translate(170 542)" fill="#0c273c"/><path d="M42,41.333H53.813V46.5H42Z" transform="translate(170 542)" fill="#0c273c"/><path d="M42,19.375H53.813V38.75H42Z" transform="translate(170 542)" fill="#0c273c"/><path d="M42,11.625H53.813v5.167H42Z" transform="translate(170 542)" fill="#0c273c"/><path d="M34.125,23.25a1.292,1.292,0,1,1,1.313-1.292A1.306,1.306,0,0,1,34.125,23.25Zm0,20.667a1.292,1.292,0,1,1,1.313-1.292A1.306,1.306,0,0,1,34.125,43.917Zm5.25-25.833h-10.5V46.5h10.5Z" transform="translate(170 542)" fill="#0c273c"/><path d="M23.625,19.375H19.688V15.5h3.938Zm2.625-6.458H17.063V46.5H26.25Z" transform="translate(170 542)" fill="#0c273c"/></g></svg>