<svg xmlns="http://www.w3.org/2000/svg" width="44.562" height="45.209" viewBox="0 0 44.562 45.209"><g transform="translate(-382.042 -118.395)"><path d="M388.5,127.438l3.332,9.784a4.521,4.521,0,1,0,7,3.778,4.643,4.643,0,0,0-.329-1.7l6.684-5a4.524,4.524,0,0,0,2.687.892h.065L412.286,149a4.52,4.52,0,1,0,2.693-.9h-.265l-4.307-13.691a4.521,4.521,0,1,0-6.769-2.183l-6.742,5.056a4.527,4.527,0,0,0-2.584-.807h0l-3.345-9.778a4.518,4.518,0,1,0-2.467.737Z" fill="#0c273c"/><path d="M422.729,159.729H382.042V163.6H426.6V118.4h-3.875Z" fill="#0c273c"/></g></svg>