<svg xmlns="http://www.w3.org/2000/svg" width="56.576" height="37.458" viewBox="0 0 56.576 37.458"><g transform="translate(-375.712 -554.271)"><path d="M429.7,554.271H388.371a2.59,2.59,0,0,0-2.583,2.583v9.365a9.163,9.163,0,0,1,2.324-.323,12.476,12.476,0,0,1,1.551.129v-7.879h38.75v24.542H406.519l-3.682,3.874H429.7a2.591,2.591,0,0,0,2.584-2.583V556.854a2.591,2.591,0,0,0-2.584-2.583" fill="#0c273c"/><path d="M388.177,579.458a5.49,5.49,0,1,0-5.489-5.489,5.485,5.485,0,0,0,5.489,5.489" fill="#0c273c"/><path d="M409.3,573.065a2.8,2.8,0,0,0-3.811-.84c-.258.129-.387.387-.516.517l-9.429,9.816A21.911,21.911,0,0,0,392.7,581.4a27.112,27.112,0,0,0-4.521-.581,15.72,15.72,0,0,0-4.521.71,14.9,14.9,0,0,0-5.748,3.035,3.423,3.423,0,0,0-.839,1.486l-1.357,5.683h19.311v-.064l5.49-6.394,8.46-8.913a2.708,2.708,0,0,0,.323-3.293" fill="#0c273c"/></g></svg>