<svg xmlns="http://www.w3.org/2000/svg" width="47.036" height="51.667" viewBox="0 0 47.036 51.667"><g transform="translate(-177.986 -287.167)"><path d="M35.241,31A3.938,3.938,0,1,1,31.3,27.125,3.907,3.907,0,0,1,35.241,31Z" transform="translate(170 282)" fill="#0c273c"/><path d="M54.4,18.083c-1.116-1.873-3.609-2.777-7.022-2.777a30.366,30.366,0,0,0-7.416,1.1C38.063,9.623,34.912,5.167,31.3,5.167c-3.544,0-6.759,4.392-8.6,11.108a30.338,30.338,0,0,0-7.088-1.033c-3.412,0-5.906.9-7.022,2.777-1.838,3.1.591,8.073,5.644,13.111-4.856,4.908-7.088,9.688-5.316,12.723,1.116,1.873,3.609,2.777,7.022,2.777a30.572,30.572,0,0,0,6.759-.9c1.9,6.717,5.053,11.108,8.6,11.108s6.759-4.392,8.6-11.108a30.338,30.338,0,0,0,7.088,1.033c3.412,0,5.906-.9,7.022-2.777,1.772-3.035-.459-7.815-5.316-12.723C53.878,26.156,56.241,21.183,54.4,18.083Zm-7.022-.194c2.428,0,4.2.581,4.725,1.485.984,1.679-.788,5.619-5.25,10.01a51.886,51.886,0,0,0-5.316-4.2,47.325,47.325,0,0,0-.984-6.329A27.988,27.988,0,0,1,47.381,17.89ZM35.634,37.717q-2.067,1.162-4.134,2.131-2.067-.969-4.134-2.131c-1.312-.775-2.625-1.55-3.806-2.325-.131-1.421-.131-2.842-.131-4.392,0-1.421.066-2.777.131-4.133,1.313-.9,2.691-1.744,4.2-2.583q1.87-1.066,3.741-1.937,1.87.872,3.741,1.938c1.313.775,2.625,1.55,3.806,2.325.131,1.421.131,2.842.131,4.392q0,2.422-.2,4.65C37.931,36.36,36.816,37.006,35.634,37.717Zm3.019,1.227c-.2,1.227-.394,2.454-.591,3.552-1.116-.388-2.3-.775-3.478-1.292.787-.388,1.575-.84,2.363-1.292C37.538,39.59,38.128,39.267,38.653,38.944ZM28.416,41.2c-1.313.517-2.559.969-3.806,1.356-.263-1.227-.459-2.519-.656-3.875.722.452,1.378.84,2.166,1.292C26.841,40.365,27.628,40.817,28.416,41.2Zm-7.547-7.75a35.594,35.594,0,0,1-2.822-2.325c.853-.775,1.837-1.55,2.822-2.325,0,.71-.066,1.421-.066,2.2C20.8,31.84,20.8,32.679,20.869,33.454Zm3.019-9.881c.2-1.421.394-2.777.656-4.069,1.247.388,2.559.9,3.872,1.421-.656.323-1.378.71-2.034,1.1C25.594,22.54,24.741,23.056,23.887,23.573Zm10.631-2.648c1.181-.517,2.363-.9,3.544-1.292.263,1.162.459,2.39.656,3.681-.722-.452-1.378-.84-2.166-1.292C35.9,21.7,35.241,21.313,34.519,20.925Zm7.219,7.621c1.181.9,2.231,1.744,3.216,2.648-.984.84-2.034,1.744-3.216,2.583.066-.9.066-1.808.066-2.712S41.8,29.321,41.738,28.546ZM31.3,7.75c1.969,0,4.528,3.423,6.169,9.365-1.9.646-3.938,1.421-5.972,2.325a60.159,60.159,0,0,0-6.3-2.454C26.841,11.108,29.334,7.75,31.3,7.75ZM10.828,19.375c.591-.969,2.3-1.485,4.725-1.485a27.473,27.473,0,0,1,6.431.9A50.683,50.683,0,0,0,21,25.446a44.7,44.7,0,0,0-4.922,3.94C11.681,24.994,9.844,21.054,10.828,19.375ZM15.947,44.11c-2.428,0-4.2-.581-4.725-1.485-.984-1.679.722-5.425,4.922-9.687q2.264,1.938,4.922,3.875a47.7,47.7,0,0,0,.984,6.458A23.861,23.861,0,0,1,15.947,44.11ZM31.3,54.25c-1.969,0-4.462-3.358-6.1-9.171a59.294,59.294,0,0,0,6.3-2.39,52.359,52.359,0,0,0,5.906,2.26C35.766,50.892,33.272,54.25,31.3,54.25ZM51.778,42.625c-.591.969-2.3,1.485-4.725,1.485a27.013,27.013,0,0,1-6.431-.9,55.057,55.057,0,0,0,.919-6.135,51.632,51.632,0,0,0,5.316-4.133C51.056,37.2,52.763,40.946,51.778,42.625Z" transform="translate(170 282)" fill="#0c273c"/></g></svg>