<svg xmlns="http://www.w3.org/2000/svg" width="56.834" height="47.482" viewBox="0 0 56.834 47.482"><g transform="translate(-375.583 -462.414)"><path d="M423.336,503.186v-5.167l7.589.646-5.064-7.789,3.1.833-3.649-5.567,2.254.284-5.36-7.795-2.751,4.017-5.477-8.4,3.5.439-8.312-12.277-8.312,12.271,3.5-.439-5.69,8.732,4.812-1.292L395.6,493.918l11.625-2.189v7.95a19.68,19.68,0,0,0-10.172,2.7,20.888,20.888,0,0,1,7.808,7.518h27.552A25.042,25.042,0,0,0,423.336,503.186Zm-4.043-20.3-1.885,2.757-2.584-3.972Zm-2.079,10.055-3.727,5.729,7.3-.646v4.127a38.45,38.45,0,0,0-10.334-2.345v-8.072Z" fill="#0c273c"/><path d="M393.789,503.089h-.122v-2.235l3.229.646-2.364-4.353,1.718.478-2.034-3.094,1.253.155-3.094-4.165-2.842,4.153,1.247-.155-1.1,1.672-2.422-3.875,2.661.717-3.145-4.786,1.937.239-4.6-6.71-4.6,6.7,1.938-.239-3.145,4.785,2.661-.717-4.353,6.7,6.071-.736v6.458a22.069,22.069,0,0,0-7.1,5.167h26.944C399.6,505.8,396.437,503.909,393.789,503.089Zm-9.164.885v-5.7l5.07.581-1.2,2.648,3.229-.646v2.073A20.765,20.765,0,0,0,384.625,503.974Z" fill="#0c273c"/></g></svg>