<svg xmlns="http://www.w3.org/2000/svg" width="49.084" height="49.084" viewBox="0 0 49.084 49.084"><g transform="translate(-379.458 -202.458)"><path d="M404,206.333a20.645,20.645,0,1,0,14.62,6.047A20.645,20.645,0,0,0,404,206.333Zm0,45.209A24.542,24.542,0,1,1,428.542,227,24.542,24.542,0,0,1,404,251.542Z" fill="#0c273c"/><path d="M9.628,4.28l-.082.014v.178c-.058-.01-.026-.032-.068.027a1.3,1.3,0,0,1-.041.561H9.409A1.468,1.468,0,0,0,9.4,4.69l-.032.01-.082.479c-.039-.023,0-.02-.055,0l-.014.164h-.04A3.266,3.266,0,0,0,9.1,4.509c.118-.02.12-.181.068-.274l-.041-.014v.027l-.055.178H9.054c.011-.182,0-.317-.137-.356.016.078.018.112-.041.15a.129.129,0,0,1-.123-.014l-.027-.15H8.7a26.027,26.027,0,0,0,.1,4.431l-.055.465a2.248,2.248,0,0,0,.137.369l-.1.465a3.278,3.278,0,0,0,.438.848v.014H7.62v-.014L7.987,10c.077-.223-.074-.456-.014-.67a.9.9,0,0,0,.109-.479L8.042,8.4a17.516,17.516,0,0,0,.1-4.349l-.027.014L8.1,4.226l-.027.014a.154.154,0,0,1-.164-.082.153.153,0,0,0,.014-.123l-.055.014a.7.7,0,0,0-.082.383L7.741,4.4l-.014-.178-.068.041.027.246c.05.009.041.006.068.027-.018.115-.1.792-.123.807V5.32L7.59,5.156c-.046.012-.018.012-.055.014a1.479,1.479,0,0,0-.068-.479H7.454v.027c-.048.09,0,.235-.027.342H7.413L7.4,5.046a1.139,1.139,0,0,0-.068-.274c-.042-.122.047-.2.027-.315H7.29V4.281H7.221l-.014.082A.9.9,0,0,1,7.4,3.679l-.041-.041-.109.027L7.2,3.829,7.166,3.8a1.1,1.1,0,0,1,.287-.533L7.44,3.241l-.109.014a.192.192,0,0,0-.137.15l-.027-.027a.484.484,0,0,1,.356-.383L7.5,2.954H7.481A.388.388,0,0,0,7.317,3,1.852,1.852,0,0,1,7.6,2.626l-.041-.055-.1-.027.068-.178-.041-.014c-.16.056-.161.185-.232.328H7.248L7.221,2.6l-.041.027a.877.877,0,0,0-.027.315L7.1,2.927,7.084,2.8c-.052.018-.028,0-.055.041L7,3.132H6.975c.012-.069.016-.081-.027-.123H6.934a1.875,1.875,0,0,1-.082.479L6.8,3.364l-.027.014-.073.2c.015.176.275.4.082.629L6.77,4.171a.109.109,0,0,0-.041-.137l-.041.041a.163.163,0,0,0-.068-.109c-.027.166-.031.479-.082.67L6.51,4.622l-.041-.15L6.4,4.54l.055.26H6.442l-.014-.027a1.939,1.939,0,0,1,.191-2.051c.146-.173.5-.386.533-.643-.211-.016-.2.063-.3.178L6.783,2.2v.027l-.15.3-.027-.014L6.579,2.39l-.068.055-.082.274H6.414c-.006-.055,0-.053-.027-.082-.11.089-.078.243-.164.356-.011-.06-.008-.051-.041-.082-.088.052-.09.141-.082.287-.133-.046-.136.18-.123.356l-.041-.027L5.909,3.4l-.041.027a1.758,1.758,0,0,0-.082.4H5.771l-.014-.26H5.73l-.109.342H5.607l-.014-.3H5.566l-.027.369H5.525C5.34,2.409,6.181,2.24,7.057,1.6V1.586l-.014-.014c-.175,0-.256-.009-.342.055-.021-.064-.006-.056-.082-.068L6.5,1.627c-.009-.05-.006-.041-.027-.068-.1.016-.125.083-.178.1L6.278,1.6c-.111.022-.13.07-.191.137l-.068-.055a.651.651,0,0,0-.2.219l-.041-.027-.055.2c-.068-.016-.032-.03-.068-.014-.044.054-.037.164-.068.232H5.566a1.279,1.279,0,0,1,.109-.7,1.7,1.7,0,0,1,1.86-.383l.027-.041V1.135A.377.377,0,0,0,7.413.9C7.318.91,7.3.938,7.249.914L7.29.807,7.276.793,7.03.834c.012-.064.02-.027,0-.082L6.825.793c.013-.049.017-.038.014-.082a.528.528,0,0,0-.219.1c0-.059,0-.066-.027-.1-.135.052-.154.183-.246.274H6.332V.957C6.144.5,7.157.277,7.577.4c.288.082.352.311.533.492V.862L8.26.424h.014L8.3.492h.014L8.4,0h.041A1.672,1.672,0,0,0,8.55.479.251.251,0,0,1,8.6.424a1.788,1.788,0,0,0,.137.465h.014c.2-.641,1.769-.8,1.751.1C10.4.9,10.39.753,10.242.715l-.027.1L10.052.7,10,.711l.027.109h-.014A.327.327,0,0,0,9.806.766V.779l.027.082C9.735.839,9.664.784,9.56.807V.821L9.6.944H9.587A.178.178,0,0,0,9.423.916a.631.631,0,0,0-.191.3c.81-.34,2.332.033,2.038,1.094l-.028-.01L11.2,2.04h-.014l-.055.041V2.065a.56.56,0,0,0-.328-.383c-.025.048-.012.037-.068.055-.022-.1-.068-.105-.15-.137-.072.066-.084.057-.15-.041-.108.01-.23-.016-.274,0l-.014.068c-.052-.04-.258-.107-.356-.027H9.82a4.128,4.128,0,0,0,.821.52,1.847,1.847,0,0,1,.684,1.86H11.3a1.391,1.391,0,0,0-.027-.369h-.014l-.014.014-.014.274-.014-.027-.1-.3H11.09l-.041.191v-.03C11,3.6,11.037,3.485,10.94,3.4l-.055.15-.027-.014c.009-.161.019-.3-.082-.383-.022.037,0,.019-.041.041.008-.131.027-.255-.1-.287l-.027.068L10.6,2.954c-.053-.124-.038-.238-.137-.315l-.041.082-.014-.027c-.054-.125-.041-.222-.137-.3l-.027.014-.014.123-.03-.015L10.066,2.2,10,2.27l-.03-.014a.348.348,0,0,0-.2-.219c-.041.017-.016,0-.041.027l-.014.1a2.011,2.011,0,0,1,.848,2.2c-.053.14-.049.348-.164.424a.533.533,0,0,0,.041-.26l-.068-.055h-.014l-.027.164H10.3a1.456,1.456,0,0,0-.082-.67l-.027.014-.041.1c-.051-.035-.021-.039-.082-.014l-.014.137H10.04c-.019-.336.15-.574.027-.834A.155.155,0,0,0,10,3.487H9.97l-.055-.479H9.874v.123l-.041-.014-.014-.3L9.792,2.8l-.068.15L9.7,2.94A.461.461,0,0,0,9.632,2.6l-.041.082H9.573a.3.3,0,0,0-.15-.287H9.409l-.014.15-.1.014c-.013-.069,0-.063-.068-.082l-.041.014c.034.128.117.1.191.178l.164.315v.041C9.48,2.975,9.4,2.916,9.322,3a.442.442,0,0,1,.356.4l-.023,0a.328.328,0,0,0-.137-.164c-.065,0-.091,0-.123.027.116.15.268.243.287.492l-.027.027H9.642a.182.182,0,0,0-.1-.15l-.055.014-.014.027a1.367,1.367,0,0,1,.164.725L9.61,4.371Zm5.361,4.978c.691.055,1.334.089,1.928.178v.027A12.228,12.228,0,0,0,10.75,11.05a5.883,5.883,0,0,0-1.668,1.244l1.655,1.545.027-.014.3-.738a.844.844,0,0,1,1.19-.164.624.624,0,0,1-.356,1.012c-.28.056-.439-.1-.629-.15l-.027.014c-.193.475.347.814.752.889.423-.635,1.521-.007,1.026.684a.7.7,0,0,1-.451.2c-.919.2-1.343-.513-1.915-.738-.213.53-1.419,1.133-1.887.424a.633.633,0,0,1,.739-.916.518.518,0,0,1,.356.273c.033.107-.018.18.041.246.146-.028.291-.1.315-.246a5.517,5.517,0,0,0-1.752-1.71l-.055.055-.451.383A4.258,4.258,0,0,0,6.688,14.62l.014.068c.05.074.194.2.315.15.215-.176.017-.391.424-.492a.63.63,0,0,1,.739.875c-.43.737-1.7.2-1.9-.383l-.547.383c-.308.191-1.224.649-1.7.3-.424-.313-.21-1.258.492-1.108a1.017,1.017,0,0,1,.424.274c.347-.128,1.014-.424.711-.889-.239-.029-.392.2-.684.137a.655.655,0,0,1-.232-1.094.878.878,0,0,1,1.135.274c.129.2.138.552.3.725l.082-.082L7.85,12.294a5.314,5.314,0,0,0-1.381-1.067A12.093,12.093,0,0,0,0,9.463l.014-.027a10.248,10.248,0,0,1,6.674,1.012c.471.3.94.6,1.395.9.117.077.383.329.465.246l.957-.725a10.539,10.539,0,0,1,2.489-1.162,15.264,15.264,0,0,1,1.942-.4Z" transform="translate(399.258 218.808)" fill="#0c273c" fill-rule="evenodd"/><path d="M25.211,4.377v.246h-.247C15.652.873,5.428,8.825,7.689,18.883c1.675,7.449,8.886,11.5,17.521,9.1v.246l-.247.492c-2.92,1.992-5.908,3.646-10.364,2.95A18.414,18.414,0,0,1,1.752,22.761C-4.756,5.776,15.644-5.024,25.211,4.377Z" transform="translate(386.447 210.649)" fill="#0c273c" fill-rule="evenodd"/></g></svg>