<svg xmlns="http://www.w3.org/2000/svg" width="30.75" height="29.5" viewBox="0 0 30.75 29.5"><g transform="translate(-233.75 -456)"><path d="M30,1.25H14a.75.75,0,0,0-.75.75h0V18a.75.75,0,0,0,1.5,0h0V2.75h14.5v26.5H18a.75.75,0,0,0,0,1.5H30a.75.75,0,0,0,.75-.75h0V2A.75.75,0,0,0,30,1.25ZM17,8.75h3A.75.75,0,0,0,20.75,8h0V5A.75.75,0,0,0,20,4.25H17a.75.75,0,0,0-.75.75h0V8a.75.75,0,0,0,.75.75Zm.75-3h1.5v1.5h-1.5Zm6.25,3h3A.75.75,0,0,0,27.75,8h0V5A.75.75,0,0,0,27,4.25H24a.75.75,0,0,0-.75.75h0V8a.75.75,0,0,0,.75.75Zm.75-3h1.5v1.5h-1.5ZM16.25,14a.75.75,0,0,0,.75.75h3a.75.75,0,0,0,.75-.75h0V11a.75.75,0,0,0-.75-.75H17a.75.75,0,0,0-.75.75h0Zm1.5-2.25h1.5v1.5h-1.5ZM23.25,14a.75.75,0,0,0,.75.75h3a.75.75,0,0,0,.75-.75h0V11a.75.75,0,0,0-.75-.75H24a.75.75,0,0,0-.75.75h0Zm1.5-2.25h1.5v1.5h-1.5Zm-4,8.25V17a.75.75,0,0,0-.75-.75H17a.75.75,0,0,0-.75.75h0v3a.75.75,0,0,0,.75.75h3a.75.75,0,0,0,.75-.75Zm-1.5-.75h-1.5v-1.5h1.5Zm4,.75a.75.75,0,0,0,.75.75h3a.75.75,0,0,0,.75-.75h0V17a.75.75,0,0,0-.75-.75H24a.75.75,0,0,0-.75.75h0Zm1.5-2.25h1.5v1.5h-1.5ZM8.988,16.431a.751.751,0,0,0-.977,0h0L1.512,22a.751.751,0,0,0-.262.57h0V30a.75.75,0,0,0,.75.75H15a.75.75,0,0,0,.75-.75h0V22.572a.752.752,0,0,0-.261-.57h0ZM6.929,29.25V27.141a1.5,1.5,0,0,1,1.5-1.5h.149a1.5,1.5,0,0,1,1.5,1.5V29.25Zm7.321,0H11.571V27.141a3,3,0,0,0-3-3H8.425a3,3,0,0,0-3,3v2.11H2.749V22.919l5.75-4.93,5.75,4.93Z" transform="translate(233.75 454.75)" fill="#0c273c"/><path d="M4.987,0c.456.076.566.73.837,1.011L6.8.982C7.386.651,6.988-.172,7.988.116c.219.063.389.054.491.231.1.229,0,.866.087,1.155a2.858,2.858,0,0,0,.952.462c.322-.165.577-.464,1.01-.491l.664.635c-.015.547-.425.658-.491,1.155a3.075,3.075,0,0,0,.577.9c.29-.009.887-.076,1.068.058a1.313,1.313,0,0,1,.289.924c-.148.345-.723.469-.981.722l.029.982c.317.565,1.665.432.635,1.7-1.671.019-1.154-.154-2.078-.866a4.331,4.331,0,0,0,0-2.628,4.18,4.18,0,0,0-7.416-.982,4.226,4.226,0,0,0,2.366,6.3c1.914.551,2.176-.713,3.376.866-.363,1,.362,1.337-1.039,1.473A5.414,5.414,0,0,1,6.834,11.7l-1.01.029c-.564.32-.434,1.665-1.7.635A4.833,4.833,0,0,0,4.064,11.2a2.668,2.668,0,0,0-.952-.462c-.251.131-.7.585-1.039.462L1.438,10.6c.016-.538.423-.667.491-1.155a2.2,2.2,0,0,0-.519-.838C1.174,8.462.553,8.569.255,8.519-.4,7.262.33,7.471.976,6.844L.947,5.862C.614,5.283-.206,5.681.082,4.678c.086-.3.076-.433.346-.549A2.379,2.379,0,0,0,1.467,4.1a2.811,2.811,0,0,0,.462-.953c-.132-.248-.586-.7-.462-1.04l.606-.635c.548.015.659.425,1.154.491a2.125,2.125,0,0,0,.866-.549L4.15.289ZM6.112,3.408A2.942,2.942,0,0,1,9.229,5.747c.136.585-.178,1.349.087,1.79L12.2,10.425a1.4,1.4,0,0,1-.173,1.819,1.434,1.434,0,0,1-1.616.029L7.584,9.414c-.464-.323-1.247.013-1.9-.144C4.573,9,2.687,7.319,3.487,5.689h.029l1.76,1.7c.659,0,2.294-1.44,2.049-2.079C6.992,4.593,5.888,4.271,5.65,3.494h.058Z" transform="translate(233.752 458)" fill="#0c273c" fill-rule="evenodd"/></g></svg>