<svg xmlns="http://www.w3.org/2000/svg" width="56.086" height="50.077" viewBox="0 0 56.086 50.077"><g transform="translate(-173.872 -199.646)"><path d="M54.4,25.252h-.591l-1.706-4.521a8.057,8.057,0,0,0,3.15-10.979A8.328,8.328,0,0,0,44.1,6.652a7.888,7.888,0,0,0-3.872,4.908l-6.1-.646a5.308,5.308,0,0,0-6.037-4.392,5.24,5.24,0,0,0-4.528,5.167,5.541,5.541,0,0,0,.722,2.648l-7.35,7.1a8.109,8.109,0,1,0-4.856,14.531l1.641,9.688a5.227,5.227,0,0,0-2.756,6.91,5.377,5.377,0,0,0,7.022,2.712A5.261,5.261,0,0,0,21,48.954l5.775-2.971a10.346,10.346,0,0,0,14.372.711,9.967,9.967,0,0,0,3.347-7.363,8.377,8.377,0,0,0-.262-2.2L50.6,33.906a5.377,5.377,0,0,0,7.547.452,5.175,5.175,0,0,0,.459-7.427,6.647,6.647,0,0,0-4.2-1.679Zm0,1.938a1.486,1.486,0,1,1-1.509,1.485h0A1.473,1.473,0,0,1,54.4,27.19ZM48.1,8.783a2.261,2.261,0,1,1-2.3,2.26h0A2.264,2.264,0,0,1,48.1,8.783Zm-4.659,7.362a1.227,1.227,0,0,1,.459-.9,7.016,7.016,0,0,1,2.231-1.033,6.16,6.16,0,0,1,1.9-.258,9.013,9.013,0,0,1,1.9.258,6,6,0,0,1,2.231,1.1,1.227,1.227,0,0,1,.459.9v1.744H43.444ZM28.809,8.4A1.486,1.486,0,1,1,27.3,9.881h0A1.514,1.514,0,0,1,28.809,8.4ZM25.725,13.24a.676.676,0,0,1,.328-.581,4.444,4.444,0,0,1,1.509-.646,4.108,4.108,0,0,1,2.494,0,4.294,4.294,0,0,1,1.444.71.768.768,0,0,1,.328.581v1.162H25.791V13.24ZM11.944,22.992a2.261,2.261,0,1,1-2.3,2.26h0a2.352,2.352,0,0,1,2.3-2.26ZM7.35,32.1V30.354a1.227,1.227,0,0,1,.459-.9,7.013,7.013,0,0,1,2.231-1.033,6.157,6.157,0,0,1,1.9-.258,9.008,9.008,0,0,1,1.9.258,5.992,5.992,0,0,1,2.231,1.1,1.227,1.227,0,0,1,.459.9v1.744ZM18.7,53.152H12.6V51.99a.676.676,0,0,1,.328-.581,4.6,4.6,0,0,1,1.509-.71,4.11,4.11,0,0,1,2.494,0,4.293,4.293,0,0,1,1.444.71.767.767,0,0,1,.328.581Zm-4.594-4.521a1.51,1.51,0,1,1,1.509,1.485,1.513,1.513,0,0,1-1.509-1.485Zm5.25-1.808a5.491,5.491,0,0,0-3.216-1.485L14.5,35.65a8.13,8.13,0,0,0,3.938-2.777l6.1,3.165a9.615,9.615,0,0,0,.525,7.944Zm6.431-13.175-6.037-3.1a8.506,8.506,0,0,0,.394-2.583,7.885,7.885,0,0,0-1.509-4.65l7.35-7.04A5.349,5.349,0,0,0,33.272,14.6a6.459,6.459,0,0,0,.459-.969l6.1.646a8.023,8.023,0,0,0,3.216,5.942L37.669,30.1a10.129,10.129,0,0,0-11.878,3.552Zm11.156,2.39a2.836,2.836,0,0,1-2.888,2.777,2.777,2.777,0,1,1,0-5.554h.066a2.779,2.779,0,0,1,2.822,2.777Zm2.822,8.46H28.416V42.367a1.264,1.264,0,0,1,.591-1.1,10.913,10.913,0,0,1,2.756-1.356,8.8,8.8,0,0,1,4.725,0,7.318,7.318,0,0,1,2.756,1.356,1.545,1.545,0,0,1,.591,1.1Zm9.319-13.95a3.6,3.6,0,0,0,.2,1.163l-6.038,3.1a9.53,9.53,0,0,0-3.15-3.487l5.381-9.881a7.6,7.6,0,0,0,2.691.452,12.943,12.943,0,0,0,1.575-.129l1.706,4.521A4.643,4.643,0,0,0,49.088,30.548Zm8.334,2.583h-6.1V31.969a.676.676,0,0,1,.328-.581,4.6,4.6,0,0,1,1.509-.71,4.108,4.108,0,0,1,2.494,0,4.292,4.292,0,0,1,1.444.71.768.768,0,0,1,.328.581Z" transform="translate(170 194)" fill="#0c273c"/></g></svg>