<svg xmlns="http://www.w3.org/2000/svg" width="34.658" height="47.6" viewBox="0 0 34.658 47.6"><g transform="translate(-69.608)"><path d="M103.1,38.061a8.626,8.626,0,0,0-4.306-3.125c-.782-.294-1.546-.511-2.218-.695s-1.256-.336-1.648-.485a8.958,8.958,0,0,1-1.918-.94,2.443,2.443,0,0,1-.56-.513.626.626,0,0,1-.147-.363V29.368a10.347,10.347,0,0,0,2.658-4.892,3.3,3.3,0,0,0,.533-.294,3.56,3.56,0,0,0,1.1-1.312,12.368,12.368,0,0,0,.88-2.367,5.028,5.028,0,0,0,.218-1.377,2.507,2.507,0,0,0-.271-1.195,1.893,1.893,0,0,0-.9-.837l.716-1.067V14.843a.373.373,0,0,0,.1-.245V12.036l1.822-3.643a1.908,1.908,0,0,0-.806-2.535L87.838.226a1.909,1.909,0,0,0-1.8,0L75.521,5.858a1.908,1.908,0,0,0-.8,2.535l1.822,3.645V14.6a.356.356,0,0,0,.1.251v1.177l.716,1.065a1.941,1.941,0,0,0-.229.119,1.9,1.9,0,0,0-.673.72,2.506,2.506,0,0,0-.271,1.195A5.028,5.028,0,0,0,76.4,20.5a9.586,9.586,0,0,0,1.207,2.9,3.2,3.2,0,0,0,.776.777,3.307,3.307,0,0,0,.533.294,10.346,10.346,0,0,0,2.658,4.892v2.572a.633.633,0,0,1-.158.365,3.471,3.471,0,0,1-1.023.8,9.148,9.148,0,0,1-1.431.642c-.536.19-1.4.388-2.367.665a12.009,12.009,0,0,0-4.569,2.224,6.7,6.7,0,0,0-1.741,2.288,7.9,7.9,0,0,0-.678,3.346q0,.453.04.936a1.185,1.185,0,0,0,.208.561,2.705,2.705,0,0,0,.767.709,11.1,11.1,0,0,0,2.328,1.088A43.724,43.724,0,0,0,86.938,47.6a47.476,47.476,0,0,0,12.117-1.451,18.648,18.648,0,0,0,3.546-1.29,5.29,5.29,0,0,0,1.057-.684,2.074,2.074,0,0,0,.362-.4,1.175,1.175,0,0,0,.207-.561c.027-.322.04-.634.04-.934A7.425,7.425,0,0,0,103.1,38.061ZM84.7,12.787a2.237,2.237,0,1,1,4.474,0V13A2.237,2.237,0,1,1,84.7,13Zm.421,30.038-5.1-8.043a8.98,8.98,0,0,0,1.38-.723l2.916,4.193,1.406-2.645Zm-.869-5.746L81.9,33.7a3.552,3.552,0,0,0,.586-.582,1.965,1.965,0,0,0,.427-1.136l3.29,1.42ZM82.92,31.32V28.853l-.173-.193a9.119,9.119,0,0,1-2.591-4.789l-.068-.385-.368-.131a2.333,2.333,0,0,1-.569-.277,2.214,2.214,0,0,1-.683-.838,11.177,11.177,0,0,1-.774-2.106,3.72,3.72,0,0,1-.167-1.008,1.179,1.179,0,0,1,.112-.56.572.572,0,0,1,.321-.273.868.868,0,0,1,.171-.044l1.383,2.06.592-3.466.065-.217a22.681,22.681,0,0,0,6.766,1.032,22.8,22.8,0,0,0,6.768-1.026l.063.212.592,3.466,1.383-2.058a.771.771,0,0,1,.294.1.541.541,0,0,1,.2.213,1.188,1.188,0,0,1,.112.56,3.754,3.754,0,0,1-.167,1.008,8.394,8.394,0,0,1-1.009,2.489,1.811,1.811,0,0,1-.448.455,2.326,2.326,0,0,1-.569.277l-.368.131-.067.385a9.119,9.119,0,0,1-2.591,4.789l-.173.193V31.32l-4.017,1.734Zm8.039.664a1.958,1.958,0,0,0,.4,1.117,3.378,3.378,0,0,0,.6.612l-2.342,3.366L87.669,33.4ZM88.753,42.827l-.607-7.219,1.406,2.645,2.911-4.186c.1.062.194.123.3.181a10.28,10.28,0,0,0,1.1.527Z" fill="#0c273c"/></g></svg>