<svg xmlns="http://www.w3.org/2000/svg" width="59.418" height="49.084" viewBox="0 0 59.418 49.084"><g transform="translate(-172.29 -463.458)"><path d="M187.979,489.292a1.295,1.295,0,0,1-.791-2.316l0,0a18.99,18.99,0,0,1,8.506-3.746,1.308,1.308,0,0,1,.407,2.584,16.356,16.356,0,0,0-7.337,3.229A1.3,1.3,0,0,1,187.979,489.292Z" fill="#0c273c"/><path d="M181.2,501.336h-.064a1.29,1.29,0,0,1-1.227-1.349,16.2,16.2,0,0,1,1.937-6.84,1.295,1.295,0,0,1,2.28,1.227,13.554,13.554,0,0,0-1.666,5.735A1.292,1.292,0,0,1,181.2,501.336Z" fill="#0c273c"/><path d="M174.365,484.835a1.294,1.294,0,0,1-.782-2.325c3.294-2.467,8.351-3.875,13.879-3.875a29.2,29.2,0,0,1,6.717.756,1.291,1.291,0,0,1-.328,2.562,1.228,1.228,0,0,1-.247-.056,26.948,26.948,0,0,0-6.129-.685c-4.908,0-9.513,1.26-12.329,3.372A1.289,1.289,0,0,1,174.365,484.835Z" fill="#0c273c"/><path d="M199.223,480.353a1.4,1.4,0,0,1-1.163-.646,22.786,22.786,0,0,0-5.4-5.592c-3.494-2.584-7.44-4.166-10.546-4.172a1.389,1.389,0,1,1,0-2.778h0c3.733,0,8.183,1.725,12.2,4.721a25.5,25.5,0,0,1,6.064,6.3,1.394,1.394,0,0,1-1.163,2.15Z" fill="#0c273c"/><path d="M223.461,495.55a1.293,1.293,0,0,1-1.208-.833c-1.149-3.036-4.03-5.916-7.75-7.705a18.133,18.133,0,0,0-4.521-1.524,1.292,1.292,0,0,1,.485-2.538,20.914,20.914,0,0,1,5.167,1.737c4.359,2.1,7.64,5.425,9.035,9.125a1.293,1.293,0,0,1-.749,1.667h0A1.26,1.26,0,0,1,223.461,495.55Z" fill="#0c273c"/><path d="M211.5,497.042h0a1.292,1.292,0,0,1-1.291-1.292,8.212,8.212,0,0,0-2.345-5.4,9.818,9.818,0,0,0-1.989-1.705,1.291,1.291,0,1,1,1.31-2.226c.027.015.053.032.079.049a12.373,12.373,0,0,1,2.486,2.119,10.65,10.65,0,0,1,3.022,7.194A1.291,1.291,0,0,1,211.5,497.042Z" fill="#0c273c"/><path d="M206.424,482.1a1.292,1.292,0,0,1-.607-2.435,21.672,21.672,0,0,1,5.289-1.937,1.3,1.3,0,0,1,.582,2.525,19.24,19.24,0,0,0-4.657,1.686A1.289,1.289,0,0,1,206.424,482.1Z" fill="#0c273c"/><path d="M229.319,482.549a1.293,1.293,0,0,1-.73-.226c-2-1.375-5.386-2.357-9.042-2.628a1.3,1.3,0,0,1,.194-2.584c4.166.31,7.931,1.428,10.333,3.074a1.292,1.292,0,0,1-.729,2.358Z" fill="#0c273c"/><path d="M204.034,478.739a1.293,1.293,0,0,1-1.169-1.841,23.838,23.838,0,0,1,3.727-5.651c3.184-3.642,7.1-6.109,10.727-6.775a1.292,1.292,0,0,1,.465,2.538c-3.022.556-6.458,2.778-9.248,5.942a21.544,21.544,0,0,0-3.307,5.038A1.292,1.292,0,0,1,204.034,478.739Z" fill="#0c273c"/><path d="M197.285,511.431a1.291,1.291,0,0,1-1.291-1.111,41.393,41.393,0,0,1,.045-10.23,39.549,39.549,0,0,1,2.641-10.663,1.293,1.293,0,0,1,2.371,1.034,36.75,36.75,0,0,0-2.442,9.933,38.359,38.359,0,0,0-.045,9.564,1.292,1.292,0,0,1-1.085,1.46A.842.842,0,0,1,197.285,511.431Z" fill="#0c273c"/><path d="M192.177,496a.946.946,0,0,1-.271,0,1.292,1.292,0,0,1-1-1.53l0-.014a13.482,13.482,0,0,1,2.267-4.863,15.477,15.477,0,0,1,1.292-1.543,1.293,1.293,0,1,1,1.885,1.769,14.09,14.09,0,0,0-1.059,1.292,10.891,10.891,0,0,0-1.834,3.875A1.292,1.292,0,0,1,192.177,496Z" fill="#0c273c"/><path d="M199.9,470.918a1.293,1.293,0,0,1-1.292-1.059,17.456,17.456,0,0,0-1.343-4.463,1.294,1.294,0,0,1,2.3-1.189,19.811,19.811,0,0,1,1.608,5.167,1.291,1.291,0,0,1-1.033,1.505A1.074,1.074,0,0,1,199.9,470.918Z" fill="#0c273c"/><path d="M207.735,506.083a1.292,1.292,0,0,1-1.292-1.13,60.291,60.291,0,0,0-2.867-12.658,1.294,1.294,0,1,1,2.441-.859,63.2,63.2,0,0,1,2.99,13.2,1.291,1.291,0,0,1-1.115,1.446h-.157Z" fill="#0c273c"/><path d="M178.1,488.646a1.292,1.292,0,1,1-1.292-1.292A1.292,1.292,0,0,1,178.1,488.646Z" fill="#0c273c"/><path d="M191.667,499.625a1.292,1.292,0,1,1-1.292-1.292A1.293,1.293,0,0,1,191.667,499.625Z" fill="#0c273c"/><path d="M218.146,496.4a1.292,1.292,0,1,1-1.292-1.292A1.292,1.292,0,0,1,218.146,496.4Z" fill="#0c273c"/><path d="M209.75,511.25a1.291,1.291,0,1,1-1.292-1.292A1.292,1.292,0,0,1,209.75,511.25Z" fill="#0c273c"/><path d="M207.167,466.688a1.292,1.292,0,1,1-1.292-1.292A1.292,1.292,0,0,1,207.167,466.688Z" fill="#0c273c"/><path d="M192.312,464.75a1.291,1.291,0,1,1-1.291-1.292A1.292,1.292,0,0,1,192.312,464.75Z" fill="#0c273c"/><path d="M216.854,478.312a1.292,1.292,0,1,1-1.292-1.291A1.291,1.291,0,0,1,216.854,478.312Z" fill="#0c273c"/><path d="M186.5,490.583a1.291,1.291,0,1,1-1.292-1.291A1.291,1.291,0,0,1,186.5,490.583Z" fill="#0c273c"/><path d="M202,473.766a1.291,1.291,0,1,1-1.292-1.292A1.291,1.291,0,0,1,202,473.766Z" fill="#0c273c"/><path d="M183.762,507.659a.483.483,0,0,0,.135-.484.461.461,0,0,0-.407-.3h-1.479a.432.432,0,0,1-.406-.3l-.485-1.46a.5.5,0,0,0-.432-.329.515.515,0,0,0-.433.3l-.485,1.453a.393.393,0,0,1-.406.3h-1.479a.412.412,0,0,0-.407.3.464.464,0,0,0,.135.484l.511.459.626.588a.647.647,0,0,1,.129.219.31.31,0,0,1,0,.239l-.458,1.537a.42.42,0,0,0,.168.485.439.439,0,0,0,.51,0l1.291-.917a.471.471,0,0,1,.517,0l1.292.917a.439.439,0,0,0,.51,0,.426.426,0,0,0,.161-.485l-.458-1.537a.425.425,0,0,1,.136-.458l1.188-1.021Z" fill="#0c273c"/><path d="M178.6,472.784a.485.485,0,0,0,.136-.484.464.464,0,0,0-.407-.3h-1.479a.433.433,0,0,1-.407-.3l-.484-1.46a.5.5,0,0,0-.433-.329.516.516,0,0,0-.433.3l-.484,1.453a.4.4,0,0,1-.407.3h-1.479a.413.413,0,0,0-.407.3.464.464,0,0,0,.136.484l.491.465.645.582a.631.631,0,0,1,.129.219.31.31,0,0,1,0,.239l-.458,1.537a.42.42,0,0,0,.168.485.439.439,0,0,0,.51,0l1.292-.917a.469.469,0,0,1,.516,0l1.292.917a.439.439,0,0,0,.51,0,.427.427,0,0,0,.162-.485l-.459-1.537a.425.425,0,0,1,.162-.458l1.188-1.021Z" fill="#0c273c"/><path d="M223.158,502.428a.483.483,0,0,0,.135-.484.465.465,0,0,0-.407-.3h-1.479a.432.432,0,0,1-.407-.3l-.484-1.459a.5.5,0,0,0-.433-.323.516.516,0,0,0-.432.3l-.485,1.46a.4.4,0,0,1-.407.29H217.28a.412.412,0,0,0-.406.3.465.465,0,0,0,.135.485l.491.458.646.594a.651.651,0,0,1,.129.22.309.309,0,0,1,0,.239l-.433,1.531a.421.421,0,0,0,.168.484.439.439,0,0,0,.51,0l1.292-.917a.471.471,0,0,1,.517,0l1.291.917a.44.44,0,0,0,.511,0,.426.426,0,0,0,.161-.484l-.458-1.538a.425.425,0,0,1,.135-.458l1.189-1.021Z" fill="#0c273c"/><path d="M227.033,470.847a.485.485,0,0,0,.135-.485.466.466,0,0,0-.407-.3h-1.479a.433.433,0,0,1-.407-.3l-.484-1.459a.5.5,0,0,0-.433-.33.516.516,0,0,0-.432.3l-.485,1.46a.4.4,0,0,1-.407.29h-1.479a.413.413,0,0,0-.406.3.464.464,0,0,0,.135.484l.51.458.627.588a.651.651,0,0,1,.129.22.309.309,0,0,1,0,.239l-.459,1.537a.42.42,0,0,0,.168.484.44.44,0,0,0,.511,0l1.291-.917a.471.471,0,0,1,.517,0l1.292.917a.439.439,0,0,0,.51,0,.426.426,0,0,0,.161-.484l-.458-1.537a.428.428,0,0,1,.135-.459l1.189-1.02Z" fill="#0c273c"/><path d="M231.708,490.583a1.291,1.291,0,1,1-1.291-1.291A1.291,1.291,0,0,1,231.708,490.583Z" fill="#0c273c"/></g></svg>