<svg xmlns="http://www.w3.org/2000/svg" width="49.656" height="53.489" viewBox="0 0 49.656 53.489"><g transform="translate(-173.219 -108.417)"><path d="M197.37,116.542v10.833h1.354v-5.417H203.8l2.37-2.369-2.419-2.37h-5.029v-8.125a.677.677,0,0,0-1.354,0V111.8h-5.2l-2.419,2.37,2.37,2.37Zm5.83,2.031,1.047,1.026-1.007,1h-4.516v-2.031Zm-10.473-5.417h4.643v2.032h-4.685l-1.005-1.006Z" fill="#0c273c"/><path d="M197.37,144.3h1.354v4.063H197.37Z" fill="#0c273c"/><path d="M197.37,151.073h1.354v4.062H197.37Z" fill="#0c273c"/><path d="M197.37,157.844h1.354v4.062H197.37Z" fill="#0c273c"/><path d="M212.891,137.734a12.124,12.124,0,0,1,1.317-11.694l7.21-10.175h-7.4L201.677,128.2a13.492,13.492,0,0,0-3.63,6.611,13.492,13.492,0,0,0-3.63-6.611l-12.34-12.339h-7.4l7.208,10.175a12.127,12.127,0,0,1,1.319,11.694l-9.984,24.172h1.465l9.77-23.652a13.475,13.475,0,0,0-1.465-13l-5.694-8.038h4.222l11.943,11.943a12.154,12.154,0,0,1,3.333,6.229l.577,2.886v3.317h1.354v-3.318l.577-2.886a12.162,12.162,0,0,1,3.333-6.229l11.943-11.942H218.8l-5.694,8.038a13.476,13.476,0,0,0-1.465,13l9.77,23.649h1.465Z" fill="#0c273c"/></g></svg>